<svg width="313" height="192" viewBox="0 0 313 192" fill="none" xmlns="http://www.w3.org/2000/svg">
<path d="M82.822 68.728H41.478C39.8567 68.728 38.5767 68.3013 37.638 67.448C36.6993 66.5947 36.23 65.4427 36.23 63.992C36.23 62.6267 36.6993 61.3467 37.638 60.152L84.486 2.296C84.998 1.69866 85.7233 1.22933 86.662 0.887993C87.6007 0.461327 88.6247 0.247993 89.734 0.247993C91.3553 0.247993 92.6353 0.759995 93.574 1.784C94.5127 2.72266 94.982 4.00266 94.982 5.62399V58.232H109.958C109.958 61.9013 109.233 64.5893 107.782 66.296C106.417 67.9173 104.241 68.728 101.254 68.728H94.982V83.064C94.982 89.1227 90.9287 92.152 82.822 92.152V68.728ZM83.334 58.232V21.112L87.302 15.864L86.534 15.352L52.486 58.232H83.334ZM156.484 92.152C150.255 92.152 144.495 90.9573 139.204 88.568C133.999 86.0933 129.86 82.808 126.788 78.712C123.716 74.5307 122.18 69.9227 122.18 64.888V27.512C122.18 22.4773 123.673 17.912 126.66 13.816C129.732 9.63466 133.871 6.34933 139.076 3.96C144.367 1.48533 150.169 0.247993 156.484 0.247993C162.799 0.247993 168.559 1.48533 173.764 3.96C179.055 6.34933 183.193 9.63466 186.18 13.816C189.252 17.912 190.788 22.4773 190.788 27.512V64.888C190.788 69.9227 189.252 74.5307 186.18 78.712C183.108 82.808 178.927 86.0933 173.636 88.568C168.431 90.9573 162.713 92.152 156.484 92.152ZM156.484 81.4C163.055 81.4 168.388 79.864 172.484 76.792C176.665 73.6347 178.756 69.5813 178.756 64.632V27.768C178.756 22.8187 176.665 18.808 172.484 15.736C168.388 12.5787 163.055 11 156.484 11C149.913 11 144.537 12.5787 140.356 15.736C136.26 18.808 134.212 22.8187 134.212 27.768V64.632C134.212 69.5813 136.26 73.6347 140.356 76.792C144.537 79.864 149.913 81.4 156.484 81.4ZM249.572 68.728H208.228C206.607 68.728 205.327 68.3013 204.388 67.448C203.449 66.5947 202.98 65.4427 202.98 63.992C202.98 62.6267 203.449 61.3467 204.388 60.152L251.236 2.296C251.748 1.69866 252.473 1.22933 253.412 0.887993C254.351 0.461327 255.375 0.247993 256.484 0.247993C258.105 0.247993 259.385 0.759995 260.324 1.784C261.263 2.72266 261.732 4.00266 261.732 5.62399V58.232H276.708C276.708 61.9013 275.983 64.5893 274.532 66.296C273.167 67.9173 270.991 68.728 268.004 68.728H261.732V83.064C261.732 89.1227 257.679 92.152 249.572 92.152V68.728ZM250.084 58.232V21.112L254.052 15.864L253.284 15.352L219.236 58.232H250.084ZM81.8782 108.778V110.341H75.8555V108.778H81.8782ZM76.2532 104.091V115H74.5771V104.091H76.2532ZM83.1566 104.091V115H81.4805V104.091H83.1566ZM90.7915 115.227C89.7404 115.227 88.8337 114.995 88.0714 114.531C87.3138 114.062 86.729 113.409 86.3171 112.571C85.9099 111.728 85.7063 110.748 85.7063 109.631C85.7063 108.513 85.9099 107.528 86.3171 106.676C86.729 105.819 87.302 105.152 88.0359 104.673C88.7745 104.19 89.6362 103.949 90.6211 103.949C91.1893 103.949 91.7504 104.044 92.3043 104.233C92.8583 104.422 93.3626 104.73 93.8171 105.156C94.2717 105.578 94.6339 106.136 94.9038 106.832C95.1737 107.528 95.3086 108.385 95.3086 109.403V110.114H86.8995V108.665H93.604C93.604 108.049 93.4809 107.5 93.2347 107.017C92.9933 106.534 92.6476 106.153 92.1978 105.874C91.7527 105.594 91.2272 105.455 90.6211 105.455C89.9535 105.455 89.3758 105.62 88.8881 105.952C88.4052 106.278 88.0335 106.705 87.7731 107.23C87.5127 107.756 87.3825 108.319 87.3825 108.92V109.886C87.3825 110.71 87.5245 111.409 87.8086 111.982C88.0974 112.55 88.4975 112.983 89.0089 113.281C89.5202 113.575 90.1145 113.722 90.7915 113.722C91.2319 113.722 91.6296 113.66 91.9847 113.537C92.3446 113.409 92.6547 113.22 92.9151 112.969C93.1755 112.713 93.3768 112.396 93.5188 112.017L95.1381 112.472C94.9677 113.021 94.6812 113.504 94.2788 113.92C93.8763 114.332 93.3791 114.654 92.7873 114.886C92.1954 115.114 91.5302 115.227 90.7915 115.227ZM97.8583 115V104.091H102.319C103.493 104.091 104.426 104.356 105.117 104.886C105.808 105.417 106.154 106.117 106.154 106.989C106.154 107.652 105.957 108.165 105.564 108.53C105.171 108.89 104.667 109.134 104.051 109.261C104.454 109.318 104.845 109.46 105.223 109.688C105.607 109.915 105.924 110.227 106.175 110.625C106.426 111.018 106.551 111.501 106.551 112.074C106.551 112.633 106.409 113.132 106.125 113.572C105.841 114.013 105.434 114.361 104.904 114.616C104.373 114.872 103.739 115 103 115H97.8583ZM99.4492 113.466H103C103.578 113.466 104.03 113.329 104.357 113.054C104.684 112.779 104.847 112.405 104.847 111.932C104.847 111.368 104.684 110.926 104.357 110.604C104.03 110.277 103.578 110.114 103 110.114H99.4492V113.466ZM99.4492 108.665H102.319C102.768 108.665 103.154 108.603 103.476 108.48C103.798 108.352 104.044 108.172 104.215 107.94C104.39 107.704 104.478 107.424 104.478 107.102C104.478 106.643 104.286 106.283 103.902 106.023C103.519 105.758 102.991 105.625 102.319 105.625H99.4492V108.665ZM113.663 115.227C112.612 115.227 111.705 114.995 110.942 114.531C110.185 114.062 109.6 113.409 109.188 112.571C108.781 111.728 108.577 110.748 108.577 109.631C108.577 108.513 108.781 107.528 109.188 106.676C109.6 105.819 110.173 105.152 110.907 104.673C111.646 104.19 112.507 103.949 113.492 103.949C114.06 103.949 114.621 104.044 115.175 104.233C115.729 104.422 116.234 104.73 116.688 105.156C117.143 105.578 117.505 106.136 117.775 106.832C118.045 107.528 118.18 108.385 118.18 109.403V110.114H109.771V108.665H116.475C116.475 108.049 116.352 107.5 116.106 107.017C115.864 106.534 115.519 106.153 115.069 105.874C114.624 105.594 114.098 105.455 113.492 105.455C112.825 105.455 112.247 105.62 111.759 105.952C111.276 106.278 110.905 106.705 110.644 107.23C110.384 107.756 110.254 108.319 110.254 108.92V109.886C110.254 110.71 110.396 111.409 110.68 111.982C110.969 112.55 111.369 112.983 111.88 113.281C112.391 113.575 112.986 113.722 113.663 113.722C114.103 113.722 114.501 113.66 114.856 113.537C115.216 113.409 115.526 113.22 115.786 112.969C116.047 112.713 116.248 112.396 116.39 112.017L118.009 112.472C117.839 113.021 117.552 113.504 117.15 113.92C116.747 114.332 116.25 114.654 115.658 114.886C115.067 115.114 114.401 115.227 113.663 115.227ZM120.729 119.091V104.091H122.349V105.824H122.548C122.671 105.634 122.841 105.393 123.059 105.099C123.281 104.801 123.599 104.536 124.011 104.304C124.427 104.067 124.991 103.949 125.701 103.949C126.62 103.949 127.429 104.179 128.13 104.638C128.831 105.097 129.378 105.748 129.771 106.591C130.164 107.434 130.36 108.428 130.36 109.574C130.36 110.729 130.164 111.731 129.771 112.578C129.378 113.421 128.833 114.074 128.137 114.538C127.441 114.998 126.638 115.227 125.729 115.227C125.029 115.227 124.468 115.111 124.046 114.879C123.625 114.643 123.3 114.375 123.073 114.077C122.846 113.774 122.671 113.523 122.548 113.324H122.406V119.091H120.729ZM122.377 109.545C122.377 110.369 122.498 111.096 122.739 111.726C122.981 112.351 123.334 112.841 123.798 113.196C124.262 113.546 124.83 113.722 125.502 113.722C126.203 113.722 126.788 113.537 127.256 113.168C127.73 112.794 128.085 112.292 128.322 111.662C128.563 111.027 128.684 110.322 128.684 109.545C128.684 108.778 128.566 108.087 128.329 107.472C128.097 106.851 127.744 106.361 127.271 106.001C126.802 105.637 126.212 105.455 125.502 105.455C124.82 105.455 124.247 105.627 123.783 105.973C123.319 106.314 122.969 106.792 122.732 107.408C122.496 108.018 122.377 108.731 122.377 109.545ZM140.218 108.778V110.341H134.195V108.778H140.218ZM134.593 104.091V115H132.917V104.091H134.593ZM141.496 104.091V115H139.82V104.091H141.496ZM146.006 108.04H149.131C150.41 108.04 151.388 108.364 152.065 109.013C152.742 109.661 153.08 110.483 153.08 111.477C153.08 112.131 152.929 112.725 152.626 113.26C152.323 113.79 151.878 114.214 151.29 114.531C150.703 114.844 149.984 115 149.131 115H144.558V104.091H146.234V113.438H149.131C149.794 113.438 150.339 113.262 150.765 112.912C151.191 112.562 151.404 112.112 151.404 111.562C151.404 110.985 151.191 110.514 150.765 110.149C150.339 109.785 149.794 109.602 149.131 109.602H146.006V108.04ZM154.813 115V104.091H156.489V115H154.813ZM161.234 112.528L166.489 104.091H168.421V115H166.745V106.562L161.518 115H159.558V104.091H161.234V112.528ZM165.381 100.455H166.944C166.944 101.222 166.679 101.849 166.148 102.337C165.618 102.824 164.898 103.068 163.989 103.068C163.094 103.068 162.382 102.824 161.852 102.337C161.326 101.849 161.063 101.222 161.063 100.455H162.626C162.626 100.824 162.728 101.148 162.931 101.428C163.139 101.707 163.492 101.847 163.989 101.847C164.487 101.847 164.842 101.707 165.055 101.428C165.272 101.148 165.381 100.824 165.381 100.455ZM180.326 115.256C179.635 115.256 179.008 115.125 178.444 114.865C177.881 114.6 177.433 114.219 177.102 113.722C176.77 113.22 176.605 112.614 176.605 111.903C176.605 111.278 176.728 110.772 176.974 110.384C177.22 109.991 177.549 109.683 177.961 109.46C178.373 109.238 178.828 109.072 179.325 108.963C179.827 108.849 180.331 108.759 180.838 108.693C181.501 108.608 182.038 108.544 182.45 108.501C182.867 108.454 183.17 108.376 183.359 108.267C183.553 108.158 183.65 107.969 183.65 107.699V107.642C183.65 106.941 183.458 106.397 183.075 106.009C182.696 105.62 182.121 105.426 181.349 105.426C180.549 105.426 179.922 105.601 179.467 105.952C179.012 106.302 178.693 106.676 178.508 107.074L176.917 106.506C177.201 105.843 177.58 105.327 178.054 104.957C178.532 104.583 179.053 104.323 179.616 104.176C180.184 104.025 180.743 103.949 181.292 103.949C181.643 103.949 182.045 103.991 182.5 104.077C182.959 104.157 183.402 104.325 183.828 104.581C184.259 104.837 184.616 105.223 184.9 105.739C185.184 106.255 185.326 106.946 185.326 107.812V115H183.65V113.523H183.565C183.451 113.759 183.262 114.013 182.997 114.283C182.732 114.553 182.379 114.782 181.939 114.972C181.498 115.161 180.961 115.256 180.326 115.256ZM180.582 113.75C181.245 113.75 181.804 113.62 182.258 113.359C182.717 113.099 183.063 112.763 183.295 112.351C183.532 111.939 183.65 111.506 183.65 111.051V109.517C183.579 109.602 183.423 109.68 183.181 109.751C182.945 109.818 182.67 109.877 182.358 109.929C182.05 109.976 181.749 110.019 181.456 110.057C181.167 110.09 180.932 110.118 180.752 110.142C180.317 110.199 179.91 110.291 179.531 110.419C179.157 110.542 178.854 110.729 178.622 110.98C178.395 111.226 178.281 111.562 178.281 111.989C178.281 112.571 178.496 113.011 178.927 113.31C179.363 113.603 179.914 113.75 180.582 113.75ZM187.221 118.125V113.438H188.13C188.353 113.205 188.544 112.955 188.705 112.685C188.866 112.415 189.006 112.095 189.124 111.726C189.247 111.352 189.352 110.897 189.437 110.362C189.522 109.822 189.598 109.171 189.664 108.409L190.033 104.091H196.965V113.438H198.641V118.125H196.965V115H188.897V118.125H187.221ZM190.033 113.438H195.289V105.653H191.596L191.312 108.409C191.193 109.55 191.047 110.547 190.871 111.399C190.696 112.251 190.417 112.931 190.033 113.438ZM200.866 119.091V104.091H202.485V105.824H202.684C202.807 105.634 202.978 105.393 203.196 105.099C203.418 104.801 203.735 104.536 204.147 104.304C204.564 104.067 205.127 103.949 205.838 103.949C206.756 103.949 207.566 104.179 208.267 104.638C208.967 105.097 209.514 105.748 209.907 106.591C210.3 107.434 210.497 108.428 210.497 109.574C210.497 110.729 210.3 111.731 209.907 112.578C209.514 113.421 208.97 114.074 208.274 114.538C207.578 114.998 206.775 115.227 205.866 115.227C205.165 115.227 204.604 115.111 204.183 114.879C203.761 114.643 203.437 114.375 203.21 114.077C202.983 113.774 202.807 113.523 202.684 113.324H202.542V119.091H200.866ZM202.514 109.545C202.514 110.369 202.635 111.096 202.876 111.726C203.118 112.351 203.47 112.841 203.934 113.196C204.398 113.546 204.967 113.722 205.639 113.722C206.34 113.722 206.924 113.537 207.393 113.168C207.867 112.794 208.222 112.292 208.458 111.662C208.7 111.027 208.821 110.322 208.821 109.545C208.821 108.778 208.702 108.087 208.466 107.472C208.234 106.851 207.881 106.361 207.407 106.001C206.939 105.637 206.349 105.455 205.639 105.455C204.957 105.455 204.384 105.627 203.92 105.973C203.456 106.314 203.106 106.792 202.869 107.408C202.632 108.018 202.514 108.731 202.514 109.545ZM217.627 115.227C216.576 115.227 215.67 114.995 214.907 114.531C214.15 114.062 213.565 113.409 213.153 112.571C212.746 111.728 212.542 110.748 212.542 109.631C212.542 108.513 212.746 107.528 213.153 106.676C213.565 105.819 214.138 105.152 214.872 104.673C215.61 104.19 216.472 103.949 217.457 103.949C218.025 103.949 218.586 104.044 219.14 104.233C219.694 104.422 220.199 104.73 220.653 105.156C221.108 105.578 221.47 106.136 221.74 106.832C222.01 107.528 222.145 108.385 222.145 109.403V110.114H213.735V108.665H220.44C220.44 108.049 220.317 107.5 220.071 107.017C219.829 106.534 219.484 106.153 219.034 105.874C218.589 105.594 218.063 105.455 217.457 105.455C216.789 105.455 216.212 105.62 215.724 105.952C215.241 106.278 214.869 106.705 214.609 107.23C214.349 107.756 214.218 108.319 214.218 108.92V109.886C214.218 110.71 214.36 111.409 214.645 111.982C214.933 112.55 215.333 112.983 215.845 113.281C216.356 113.575 216.95 113.722 217.627 113.722C218.068 113.722 218.466 113.66 218.821 113.537C219.181 113.409 219.491 113.22 219.751 112.969C220.011 112.713 220.213 112.396 220.355 112.017L221.974 112.472C221.804 113.021 221.517 113.504 221.115 113.92C220.712 114.332 220.215 114.654 219.623 114.886C219.031 115.114 218.366 115.227 217.627 115.227ZM229.126 115.227C228.103 115.227 227.223 114.986 226.484 114.503C225.745 114.02 225.177 113.355 224.779 112.507C224.382 111.66 224.183 110.691 224.183 109.602C224.183 108.494 224.386 107.517 224.794 106.669C225.206 105.817 225.779 105.152 226.512 104.673C227.251 104.19 228.113 103.949 229.098 103.949C229.865 103.949 230.556 104.091 231.172 104.375C231.787 104.659 232.291 105.057 232.684 105.568C233.077 106.08 233.321 106.676 233.416 107.358H231.74C231.612 106.861 231.328 106.42 230.887 106.037C230.452 105.649 229.865 105.455 229.126 105.455C228.473 105.455 227.9 105.625 227.407 105.966C226.92 106.302 226.538 106.778 226.264 107.393C225.994 108.004 225.859 108.722 225.859 109.545C225.859 110.388 225.992 111.122 226.257 111.747C226.527 112.372 226.905 112.857 227.393 113.203C227.886 113.549 228.463 113.722 229.126 113.722C229.562 113.722 229.957 113.646 230.312 113.494C230.667 113.343 230.968 113.125 231.214 112.841C231.46 112.557 231.636 112.216 231.74 111.818H233.416C233.321 112.462 233.087 113.042 232.713 113.558C232.343 114.07 231.853 114.477 231.243 114.78C230.636 115.078 229.931 115.227 229.126 115.227ZM2.39577 136.528L7.65146 128.091H9.58327V139H7.90714V130.562L2.67987 139H0.719638V128.091H2.39577V136.528ZM11.6873 139V137.438H12.085C12.4118 137.438 12.684 137.374 12.9018 137.246C13.1196 137.113 13.2948 136.884 13.4274 136.557C13.5647 136.225 13.6689 135.766 13.7399 135.179C13.8156 134.587 13.8701 133.834 13.9032 132.92L14.1021 128.091H21.3748V139H19.6987V129.653H15.693L15.5225 133.545C15.4847 134.44 15.4042 135.229 15.2811 135.911C15.1627 136.588 14.9804 137.156 14.7342 137.615C14.4927 138.074 14.1708 138.42 13.7683 138.652C13.3658 138.884 12.8616 139 12.2555 139H11.6873ZM26.1262 136.528L31.3819 128.091H33.3137V139H31.6376V130.562L26.4103 139H24.4501V128.091H26.1262V136.528ZM46.4405 142.722V124.455H48.1167V142.722H46.4405ZM46.4405 139.227C45.7019 139.227 45.0295 139.095 44.4235 138.83C43.8174 138.56 43.2966 138.179 42.861 137.686C42.4254 137.189 42.0892 136.595 41.8525 135.903C41.6157 135.212 41.4973 134.445 41.4973 133.602C41.4973 132.75 41.6157 131.978 41.8525 131.287C42.0892 130.591 42.4254 129.994 42.861 129.497C43.2966 129 43.8174 128.619 44.4235 128.354C45.0295 128.084 45.7019 127.949 46.4405 127.949H46.9519V139.227H46.4405ZM46.4405 137.722H46.7246V129.455H46.4405C45.8818 129.455 45.3965 129.568 44.9846 129.795C44.5726 130.018 44.2317 130.323 43.9618 130.712C43.6967 131.095 43.4978 131.536 43.3652 132.033C43.2374 132.53 43.1735 133.053 43.1735 133.602C43.1735 134.331 43.2895 135.009 43.5215 135.634C43.7535 136.259 44.111 136.763 44.5939 137.146C45.0769 137.53 45.6924 137.722 46.4405 137.722ZM48.1167 139.227H47.6053V127.949H48.1167C48.8553 127.949 49.5276 128.084 50.1337 128.354C50.7398 128.619 51.2606 129 51.6962 129.497C52.1318 129.994 52.468 130.591 52.7047 131.287C52.9415 131.978 53.0598 132.75 53.0598 133.602C53.0598 134.445 52.9415 135.212 52.7047 135.903C52.468 136.595 52.1318 137.189 51.6962 137.686C51.2606 138.179 50.7398 138.56 50.1337 138.83C49.5276 139.095 48.8553 139.227 48.1167 139.227ZM48.1167 137.722C48.6801 137.722 49.1654 137.613 49.5726 137.395C49.9846 137.172 50.3231 136.869 50.5882 136.486C50.8581 136.098 51.057 135.657 51.1848 135.165C51.3174 134.668 51.3837 134.147 51.3837 133.602C51.3837 132.873 51.2677 132.194 51.0357 131.564C50.8037 130.934 50.4462 130.425 49.9632 130.037C49.4803 129.649 48.8648 129.455 48.1167 129.455H47.8326V137.722H48.1167ZM56.3109 143.091C56.0268 143.091 55.7735 143.067 55.551 143.02C55.3284 142.977 55.1745 142.935 55.0893 142.892L55.5154 141.415C55.9226 141.519 56.2825 141.557 56.595 141.528C56.9075 141.5 57.1845 141.36 57.426 141.109C57.6722 140.863 57.8971 140.463 58.1007 139.909L58.4132 139.057L54.3791 128.091H56.1973L59.2086 136.784H59.3223L62.3336 128.091H64.1518L59.5211 140.591C59.3128 141.154 59.0547 141.621 58.747 141.99C58.4392 142.364 58.0817 142.641 57.6745 142.821C57.2721 143.001 56.8175 143.091 56.3109 143.091ZM73.6653 132.778V134.341H67.6426V132.778H73.6653ZM68.0403 128.091V139H66.3642V128.091H68.0403ZM74.9437 128.091V139H73.2676V128.091H74.9437ZM78.0048 139V128.091H79.6809V132.835H80.7889L84.7093 128.091H86.8684L82.465 133.347L86.9252 139H84.7662L81.1866 134.398H79.6809V139H78.0048ZM97.3265 128.091V137.438H98.8606V142.523H97.1845V139H88.747V128.091H90.4231V137.438H95.6504V128.091H97.3265ZM103.118 136.528L108.374 128.091H110.306V139H108.63V130.562L103.403 139H101.442V128.091H103.118V136.528ZM119.938 139V129.625H117.041C116.387 129.625 115.874 129.777 115.499 130.08C115.125 130.383 114.938 130.799 114.938 131.33C114.938 131.85 115.106 132.26 115.443 132.558C115.784 132.857 116.25 133.006 116.842 133.006H120.365V134.568H116.842C116.103 134.568 115.466 134.438 114.931 134.178C114.396 133.917 113.984 133.545 113.695 133.062C113.407 132.575 113.262 131.997 113.262 131.33C113.262 130.657 113.414 130.08 113.717 129.597C114.02 129.114 114.453 128.742 115.017 128.482C115.585 128.221 116.259 128.091 117.041 128.091H121.529V139H119.938ZM112.666 139L115.762 133.574H117.58L114.484 139H112.666ZM134.805 139.227C133.754 139.227 132.847 138.995 132.085 138.531C131.327 138.062 130.743 137.409 130.331 136.571C129.924 135.728 129.72 134.748 129.72 133.631C129.72 132.513 129.924 131.528 130.331 130.676C130.743 129.819 131.316 129.152 132.05 128.673C132.788 128.19 133.65 127.949 134.635 127.949C135.203 127.949 135.764 128.044 136.318 128.233C136.872 128.422 137.376 128.73 137.831 129.156C138.285 129.578 138.648 130.136 138.917 130.832C139.187 131.528 139.322 132.385 139.322 133.403V134.114H130.913V132.665H137.618C137.618 132.049 137.495 131.5 137.248 131.017C137.007 130.534 136.661 130.153 136.211 129.874C135.766 129.594 135.241 129.455 134.635 129.455C133.967 129.455 133.39 129.62 132.902 129.952C132.419 130.278 132.047 130.705 131.787 131.23C131.526 131.756 131.396 132.319 131.396 132.92V133.886C131.396 134.71 131.538 135.409 131.822 135.982C132.111 136.55 132.511 136.983 133.023 137.281C133.534 137.575 134.128 137.722 134.805 137.722C135.246 137.722 135.643 137.66 135.998 137.537C136.358 137.409 136.668 137.22 136.929 136.969C137.189 136.713 137.39 136.396 137.532 136.017L139.152 136.472C138.981 137.021 138.695 137.504 138.292 137.92C137.89 138.332 137.393 138.654 136.801 138.886C136.209 139.114 135.544 139.227 134.805 139.227ZM156.758 137.438L156.559 142.125H154.827V139H153.406V137.438H156.758ZM141.872 128.091H143.548V137.438H147.667V128.091H149.344V137.438H153.463V128.091H155.139V139H141.872V128.091ZM163.653 139.227C162.602 139.227 161.695 138.995 160.933 138.531C160.175 138.062 159.59 137.409 159.178 136.571C158.771 135.728 158.568 134.748 158.568 133.631C158.568 132.513 158.771 131.528 159.178 130.676C159.59 129.819 160.163 129.152 160.897 128.673C161.636 128.19 162.498 127.949 163.482 127.949C164.051 127.949 164.612 128.044 165.166 128.233C165.72 128.422 166.224 128.73 166.678 129.156C167.133 129.578 167.495 130.136 167.765 130.832C168.035 131.528 168.17 132.385 168.17 133.403V134.114H159.761V132.665H166.465C166.465 132.049 166.342 131.5 166.096 131.017C165.855 130.534 165.509 130.153 165.059 129.874C164.614 129.594 164.088 129.455 163.482 129.455C162.815 129.455 162.237 129.62 161.749 129.952C161.267 130.278 160.895 130.705 160.634 131.23C160.374 131.756 160.244 132.319 160.244 132.92V133.886C160.244 134.71 160.386 135.409 160.67 135.982C160.959 136.55 161.359 136.983 161.87 137.281C162.382 137.575 162.976 137.722 163.653 137.722C164.093 137.722 164.491 137.66 164.846 137.537C165.206 137.409 165.516 137.22 165.776 136.969C166.037 136.713 166.238 136.396 166.38 136.017L167.999 136.472C167.829 137.021 167.543 137.504 167.14 137.92C166.738 138.332 166.24 138.654 165.649 138.886C165.057 139.114 164.392 139.227 163.653 139.227ZM183.646 132.778V134.341H177.623V132.778H183.646ZM178.021 128.091V139H176.345V128.091H178.021ZM184.924 128.091V139H183.248V128.091H184.924ZM192.559 139.227C191.508 139.227 190.601 138.995 189.839 138.531C189.081 138.062 188.497 137.409 188.085 136.571C187.677 135.728 187.474 134.748 187.474 133.631C187.474 132.513 187.677 131.528 188.085 130.676C188.497 129.819 189.07 129.152 189.803 128.673C190.542 128.19 191.404 127.949 192.389 127.949C192.957 127.949 193.518 128.044 194.072 128.233C194.626 128.422 195.13 128.73 195.585 129.156C196.039 129.578 196.401 130.136 196.671 130.832C196.941 131.528 197.076 132.385 197.076 133.403V134.114H188.667V132.665H195.372C195.372 132.049 195.249 131.5 195.002 131.017C194.761 130.534 194.415 130.153 193.965 129.874C193.52 129.594 192.995 129.455 192.389 129.455C191.721 129.455 191.143 129.62 190.656 129.952C190.173 130.278 189.801 130.705 189.541 131.23C189.28 131.756 189.15 132.319 189.15 132.92V133.886C189.15 134.71 189.292 135.409 189.576 135.982C189.865 136.55 190.265 136.983 190.776 137.281C191.288 137.575 191.882 137.722 192.559 137.722C192.999 137.722 193.397 137.66 193.752 137.537C194.112 137.409 194.422 137.22 194.683 136.969C194.943 136.713 195.144 136.396 195.286 136.017L196.906 136.472C196.735 137.021 196.449 137.504 196.046 137.92C195.644 138.332 195.147 138.654 194.555 138.886C193.963 139.114 193.298 139.227 192.559 139.227ZM204.086 142.125V137.438H204.995C205.218 137.205 205.41 136.955 205.57 136.685C205.731 136.415 205.871 136.095 205.99 135.726C206.113 135.352 206.217 134.897 206.302 134.362C206.387 133.822 206.463 133.171 206.529 132.409L206.899 128.091H213.83V137.438H215.507V142.125H213.83V139H205.762V142.125H204.086ZM206.899 137.438H212.154V129.653H208.461L208.177 132.409C208.059 133.55 207.912 134.547 207.737 135.399C207.561 136.251 207.282 136.931 206.899 137.438ZM222.163 139.227C221.178 139.227 220.314 138.993 219.571 138.524C218.832 138.055 218.255 137.4 217.838 136.557C217.426 135.714 217.22 134.729 217.22 133.602C217.22 132.466 217.426 131.474 217.838 130.626C218.255 129.779 218.832 129.121 219.571 128.652C220.314 128.183 221.178 127.949 222.163 127.949C223.148 127.949 224.01 128.183 224.748 128.652C225.492 129.121 226.069 129.779 226.481 130.626C226.898 131.474 227.106 132.466 227.106 133.602C227.106 134.729 226.898 135.714 226.481 136.557C226.069 137.4 225.492 138.055 224.748 138.524C224.01 138.993 223.148 139.227 222.163 139.227ZM222.163 137.722C222.911 137.722 223.527 137.53 224.01 137.146C224.493 136.763 224.85 136.259 225.082 135.634C225.314 135.009 225.43 134.331 225.43 133.602C225.43 132.873 225.314 132.194 225.082 131.564C224.85 130.934 224.493 130.425 224.01 130.037C223.527 129.649 222.911 129.455 222.163 129.455C221.415 129.455 220.8 129.649 220.317 130.037C219.834 130.425 219.476 130.934 219.244 131.564C219.012 132.194 218.896 132.873 218.896 133.602C218.896 134.331 219.012 135.009 219.244 135.634C219.476 136.259 219.834 136.763 220.317 137.146C220.8 137.53 221.415 137.722 222.163 137.722ZM234.097 139.227C233.074 139.227 232.193 138.986 231.455 138.503C230.716 138.02 230.148 137.355 229.75 136.507C229.352 135.66 229.154 134.691 229.154 133.602C229.154 132.494 229.357 131.517 229.764 130.669C230.176 129.817 230.749 129.152 231.483 128.673C232.222 128.19 233.084 127.949 234.068 127.949C234.835 127.949 235.527 128.091 236.142 128.375C236.758 128.659 237.262 129.057 237.655 129.568C238.048 130.08 238.292 130.676 238.387 131.358H236.71C236.583 130.861 236.298 130.42 235.858 130.037C235.423 129.649 234.835 129.455 234.097 129.455C233.443 129.455 232.87 129.625 232.378 129.966C231.89 130.302 231.509 130.778 231.235 131.393C230.965 132.004 230.83 132.722 230.83 133.545C230.83 134.388 230.962 135.122 231.227 135.747C231.497 136.372 231.876 136.857 232.364 137.203C232.856 137.549 233.434 137.722 234.097 137.722C234.532 137.722 234.928 137.646 235.283 137.494C235.638 137.343 235.939 137.125 236.185 136.841C236.431 136.557 236.606 136.216 236.71 135.818H238.387C238.292 136.462 238.057 137.042 237.683 137.558C237.314 138.07 236.824 138.477 236.213 138.78C235.607 139.078 234.902 139.227 234.097 139.227ZM239.977 129.653V128.091H248.841V129.653H245.262V139H243.585V129.653H239.977ZM252.366 143.091C252.081 143.091 251.828 143.067 251.606 143.02C251.383 142.977 251.229 142.935 251.144 142.892L251.57 141.415C251.977 141.519 252.337 141.557 252.65 141.528C252.962 141.5 253.239 141.36 253.481 141.109C253.727 140.863 253.952 140.463 254.155 139.909L254.468 139.057L250.434 128.091H252.252L255.263 136.784H255.377L258.388 128.091H260.206L255.576 140.591C255.367 141.154 255.109 141.621 254.802 141.99C254.494 142.364 254.136 142.641 253.729 142.821C253.327 143.001 252.872 143.091 252.366 143.091ZM262.419 139V128.091H270.998V139H269.322V129.653H264.095V139H262.419ZM281.361 132.778V134.341H275.338V132.778H281.361ZM275.736 128.091V139H274.059V128.091H275.736ZM282.639 128.091V139H280.963V128.091H282.639ZM288.91 139.256C288.219 139.256 287.592 139.125 287.028 138.865C286.465 138.6 286.017 138.219 285.686 137.722C285.354 137.22 285.189 136.614 285.189 135.903C285.189 135.278 285.312 134.772 285.558 134.384C285.804 133.991 286.133 133.683 286.545 133.46C286.957 133.238 287.412 133.072 287.909 132.963C288.411 132.849 288.915 132.759 289.422 132.693C290.085 132.608 290.622 132.544 291.034 132.501C291.451 132.454 291.754 132.376 291.943 132.267C292.137 132.158 292.234 131.969 292.234 131.699V131.642C292.234 130.941 292.042 130.397 291.659 130.009C291.28 129.62 290.705 129.426 289.933 129.426C289.133 129.426 288.506 129.601 288.051 129.952C287.596 130.302 287.277 130.676 287.092 131.074L285.501 130.506C285.785 129.843 286.164 129.327 286.638 128.957C287.116 128.583 287.637 128.323 288.2 128.176C288.768 128.025 289.327 127.949 289.876 127.949C290.227 127.949 290.629 127.991 291.084 128.077C291.543 128.157 291.986 128.325 292.412 128.581C292.843 128.837 293.2 129.223 293.484 129.739C293.768 130.255 293.91 130.946 293.91 131.812V139H292.234V137.523H292.149C292.035 137.759 291.846 138.013 291.581 138.283C291.316 138.553 290.963 138.782 290.523 138.972C290.082 139.161 289.545 139.256 288.91 139.256ZM289.166 137.75C289.829 137.75 290.388 137.62 290.842 137.359C291.301 137.099 291.647 136.763 291.879 136.351C292.116 135.939 292.234 135.506 292.234 135.051V133.517C292.163 133.602 292.007 133.68 291.765 133.751C291.529 133.818 291.254 133.877 290.942 133.929C290.634 133.976 290.333 134.019 290.04 134.057C289.751 134.09 289.516 134.118 289.336 134.142C288.901 134.199 288.494 134.291 288.115 134.419C287.741 134.542 287.438 134.729 287.206 134.98C286.979 135.226 286.865 135.562 286.865 135.989C286.865 136.571 287.08 137.011 287.511 137.31C287.947 137.603 288.498 137.75 289.166 137.75ZM303.816 139.114C303.466 139.114 303.165 138.988 302.914 138.737C302.663 138.486 302.538 138.186 302.538 137.835C302.538 137.485 302.663 137.184 302.914 136.933C303.165 136.682 303.466 136.557 303.816 136.557C304.167 136.557 304.467 136.682 304.718 136.933C304.969 137.184 305.095 137.485 305.095 137.835C305.095 138.067 305.035 138.28 304.917 138.474C304.803 138.669 304.65 138.825 304.455 138.943C304.266 139.057 304.053 139.114 303.816 139.114ZM303.816 131.017C303.466 131.017 303.165 130.892 302.914 130.641C302.663 130.39 302.538 130.089 302.538 129.739C302.538 129.388 302.663 129.088 302.914 128.837C303.165 128.586 303.466 128.46 303.816 128.46C304.167 128.46 304.467 128.586 304.718 128.837C304.969 129.088 305.095 129.388 305.095 129.739C305.095 129.971 305.035 130.184 304.917 130.378C304.803 130.572 304.65 130.728 304.455 130.847C304.266 130.96 304.053 131.017 303.816 131.017ZM308.699 132.864C308.699 131.074 308.931 129.429 309.395 127.928C309.864 126.422 310.531 125.037 311.398 123.773H312.875C312.534 124.241 312.215 124.819 311.916 125.506C311.623 126.187 311.365 126.938 311.142 127.757C310.92 128.571 310.744 129.414 310.617 130.286C310.494 131.157 310.432 132.016 310.432 132.864C310.432 133.991 310.541 135.134 310.759 136.294C310.977 137.454 311.27 138.531 311.639 139.526C312.009 140.52 312.421 141.33 312.875 141.955H311.398C310.531 140.69 309.864 139.308 309.395 137.807C308.931 136.301 308.699 134.653 308.699 132.864ZM45.4782 187V172.455H50.5634C51.5766 172.455 52.4123 172.63 53.0705 172.98C53.7286 173.326 54.2187 173.792 54.5407 174.379C54.8626 174.962 55.0236 175.608 55.0236 176.318C55.0236 176.943 54.9123 177.459 54.6898 177.866C54.472 178.274 54.1832 178.596 53.8233 178.832C53.4682 179.069 53.0823 179.244 52.6657 179.358V179.5C53.1107 179.528 53.5582 179.685 54.008 179.969C54.4578 180.253 54.8342 180.66 55.1373 181.19C55.4403 181.721 55.5918 182.369 55.5918 183.136C55.5918 183.866 55.4261 184.521 55.0946 185.104C54.7632 185.686 54.24 186.148 53.525 186.489C52.8101 186.83 51.8797 187 50.7338 187H45.4782ZM47.2395 185.438H50.7338C51.8844 185.438 52.7012 185.215 53.1841 184.77C53.6718 184.32 53.9157 183.776 53.9157 183.136C53.9157 182.644 53.7902 182.189 53.5392 181.773C53.2883 181.351 52.9308 181.015 52.4668 180.764C52.0028 180.509 51.4535 180.381 50.8191 180.381H47.2395V185.438ZM47.2395 178.847H50.5066C51.0369 178.847 51.5151 178.742 51.9412 178.534C52.3721 178.326 52.713 178.032 52.964 177.653C53.2196 177.275 53.3475 176.83 53.3475 176.318C53.3475 175.679 53.1249 175.137 52.6799 174.692C52.2348 174.242 51.5293 174.017 50.5634 174.017H47.2395V178.847ZM62.6905 187.227C61.7057 187.227 60.8416 186.993 60.0982 186.524C59.3596 186.055 58.7819 185.4 58.3652 184.557C57.9533 183.714 57.7473 182.729 57.7473 181.602C57.7473 180.466 57.9533 179.474 58.3652 178.626C58.7819 177.779 59.3596 177.121 60.0982 176.652C60.8416 176.183 61.7057 175.949 62.6905 175.949C63.6754 175.949 64.5371 176.183 65.2757 176.652C66.0191 177.121 66.5968 177.779 67.0087 178.626C67.4254 179.474 67.6337 180.466 67.6337 181.602C67.6337 182.729 67.4254 183.714 67.0087 184.557C66.5968 185.4 66.0191 186.055 65.2757 186.524C64.5371 186.993 63.6754 187.227 62.6905 187.227ZM62.6905 185.722C63.4386 185.722 64.0542 185.53 64.5371 185.146C65.0201 184.763 65.3775 184.259 65.6096 183.634C65.8416 183.009 65.9576 182.331 65.9576 181.602C65.9576 180.873 65.8416 180.194 65.6096 179.564C65.3775 178.934 65.0201 178.425 64.5371 178.037C64.0542 177.649 63.4386 177.455 62.6905 177.455C61.9424 177.455 61.3269 177.649 60.8439 178.037C60.361 178.425 60.0035 178.934 59.7715 179.564C59.5395 180.194 59.4235 180.873 59.4235 181.602C59.4235 182.331 59.5395 183.009 59.7715 183.634C60.0035 184.259 60.361 184.763 60.8439 185.146C61.3269 185.53 61.9424 185.722 62.6905 185.722ZM69.5105 184.216H71.3002C71.3381 184.708 71.5607 185.082 71.9679 185.338C72.3798 185.594 72.9148 185.722 73.573 185.722C74.2453 185.722 74.8206 185.584 75.2988 185.31C75.777 185.03 76.0162 184.58 76.0162 183.96C76.0162 183.596 75.9262 183.278 75.7463 183.009C75.5663 182.734 75.313 182.521 74.9863 182.369C74.6596 182.218 74.2737 182.142 73.8287 182.142H71.9537V180.636H73.8287C74.4963 180.636 74.9887 180.485 75.3059 180.182C75.6279 179.879 75.7889 179.5 75.7889 179.045C75.7889 178.558 75.6161 178.167 75.2704 177.874C74.9248 177.575 74.4347 177.426 73.8002 177.426C73.161 177.426 72.6284 177.571 72.2022 177.859C71.7761 178.143 71.5512 178.51 71.5275 178.96H69.7662C69.7851 178.373 69.965 177.855 70.3059 177.405C70.6468 176.95 71.1109 176.595 71.698 176.339C72.2851 176.079 72.9574 175.949 73.715 175.949C74.4821 175.949 75.1473 176.084 75.7108 176.354C76.2789 176.619 76.7169 176.981 77.0247 177.44C77.3372 177.895 77.4934 178.411 77.4934 178.989C77.4934 179.604 77.3206 180.101 76.975 180.48C76.6293 180.859 76.1961 181.129 75.6752 181.29V181.403C76.0872 181.432 76.4447 181.564 76.7477 181.801C77.0555 182.033 77.2946 182.339 77.465 182.717C77.6355 183.091 77.7207 183.506 77.7207 183.96C77.7207 184.623 77.5431 185.201 77.188 185.693C76.8329 186.181 76.3452 186.56 75.725 186.83C75.1047 187.095 74.3968 187.227 73.6014 187.227C72.8296 187.227 72.1383 187.102 71.5275 186.851C70.9167 186.595 70.4314 186.242 70.0716 185.793C69.7164 185.338 69.5294 184.812 69.5105 184.216ZM80.0751 187V176.091H84.5353C85.7096 176.091 86.6423 176.356 87.3336 176.886C88.0249 177.417 88.3706 178.117 88.3706 178.989C88.3706 179.652 88.1741 180.165 87.7811 180.53C87.3881 180.89 86.8838 181.134 86.2683 181.261C86.6708 181.318 87.0614 181.46 87.4402 181.688C87.8237 181.915 88.1409 182.227 88.3919 182.625C88.6428 183.018 88.7683 183.501 88.7683 184.074C88.7683 184.633 88.6262 185.132 88.3422 185.572C88.0581 186.013 87.6509 186.361 87.1206 186.616C86.5903 186.872 85.9558 187 85.2172 187H80.0751ZM81.666 185.466H85.2172C85.7948 185.466 86.247 185.329 86.5737 185.054C86.9004 184.779 87.0637 184.405 87.0637 183.932C87.0637 183.368 86.9004 182.926 86.5737 182.604C86.247 182.277 85.7948 182.114 85.2172 182.114H81.666V185.466ZM81.666 180.665H84.5353C84.9851 180.665 85.371 180.603 85.693 180.48C86.015 180.352 86.2612 180.172 86.4316 179.94C86.6068 179.704 86.6944 179.424 86.6944 179.102C86.6944 178.643 86.5027 178.283 86.1191 178.023C85.7356 177.758 85.2077 177.625 84.5353 177.625H81.666V180.665ZM91.3056 191.091V176.091H92.9249V177.824H93.1238C93.2469 177.634 93.4173 177.393 93.6351 177.099C93.8577 176.801 94.1749 176.536 94.5868 176.304C95.0035 176.067 95.5669 175.949 96.2772 175.949C97.1957 175.949 98.0054 176.179 98.7061 176.638C99.4069 177.097 99.9538 177.748 100.347 178.591C100.74 179.434 100.936 180.428 100.936 181.574C100.936 182.729 100.74 183.731 100.347 184.578C99.9538 185.421 99.4093 186.074 98.7132 186.538C98.0172 186.998 97.2147 187.227 96.3056 187.227C95.6048 187.227 95.0437 187.111 94.6223 186.879C94.2009 186.643 93.8766 186.375 93.6493 186.077C93.4221 185.774 93.2469 185.523 93.1238 185.324H92.9817V191.091H91.3056ZM92.9533 181.545C92.9533 182.369 93.074 183.096 93.3155 183.726C93.557 184.351 93.9097 184.841 94.3738 185.196C94.8378 185.546 95.406 185.722 96.0783 185.722C96.7791 185.722 97.3638 185.537 97.8326 185.168C98.306 184.794 98.6612 184.292 98.8979 183.662C99.1394 183.027 99.2601 182.322 99.2601 181.545C99.2601 180.778 99.1417 180.087 98.905 179.472C98.673 178.851 98.3203 178.361 97.8468 178.001C97.378 177.637 96.7885 177.455 96.0783 177.455C95.3965 177.455 94.8236 177.627 94.3596 177.973C93.8955 178.314 93.5452 178.792 93.3084 179.408C93.0717 180.018 92.9533 180.731 92.9533 181.545ZM106.703 187.256C106.012 187.256 105.385 187.125 104.821 186.865C104.258 186.6 103.81 186.219 103.479 185.722C103.147 185.22 102.982 184.614 102.982 183.903C102.982 183.278 103.105 182.772 103.351 182.384C103.597 181.991 103.926 181.683 104.338 181.46C104.75 181.238 105.205 181.072 105.702 180.963C106.204 180.849 106.708 180.759 107.215 180.693C107.878 180.608 108.415 180.544 108.827 180.501C109.244 180.454 109.547 180.376 109.736 180.267C109.93 180.158 110.027 179.969 110.027 179.699V179.642C110.027 178.941 109.835 178.397 109.452 178.009C109.073 177.62 108.498 177.426 107.726 177.426C106.926 177.426 106.298 177.601 105.844 177.952C105.389 178.302 105.07 178.676 104.885 179.074L103.294 178.506C103.578 177.843 103.957 177.327 104.431 176.957C104.909 176.583 105.43 176.323 105.993 176.176C106.561 176.025 107.12 175.949 107.669 175.949C108.02 175.949 108.422 175.991 108.877 176.077C109.336 176.157 109.779 176.325 110.205 176.581C110.636 176.837 110.993 177.223 111.277 177.739C111.561 178.255 111.703 178.946 111.703 179.812V187H110.027V185.523H109.942C109.828 185.759 109.639 186.013 109.374 186.283C109.109 186.553 108.756 186.782 108.316 186.972C107.875 187.161 107.338 187.256 106.703 187.256ZM106.959 185.75C107.622 185.75 108.181 185.62 108.635 185.359C109.094 185.099 109.44 184.763 109.672 184.351C109.909 183.939 110.027 183.506 110.027 183.051V181.517C109.956 181.602 109.8 181.68 109.558 181.751C109.322 181.818 109.047 181.877 108.735 181.929C108.427 181.976 108.126 182.019 107.833 182.057C107.544 182.09 107.309 182.118 107.129 182.142C106.694 182.199 106.287 182.291 105.908 182.419C105.534 182.542 105.231 182.729 104.999 182.98C104.771 183.226 104.658 183.562 104.658 183.989C104.658 184.571 104.873 185.011 105.304 185.31C105.74 185.603 106.291 185.75 106.959 185.75ZM129.649 185.438L129.45 190.125H127.717V187H126.297V185.438H129.649ZM114.763 176.091H116.439V185.438H120.558V176.091H122.234V185.438H126.354V176.091H128.03V187H114.763V176.091ZM135.297 187.256C134.606 187.256 133.978 187.125 133.415 186.865C132.852 186.6 132.404 186.219 132.073 185.722C131.741 185.22 131.575 184.614 131.575 183.903C131.575 183.278 131.699 182.772 131.945 182.384C132.191 181.991 132.52 181.683 132.932 181.46C133.344 181.238 133.798 181.072 134.296 180.963C134.798 180.849 135.302 180.759 135.808 180.693C136.471 180.608 137.009 180.544 137.421 180.501C137.837 180.454 138.14 180.376 138.33 180.267C138.524 180.158 138.621 179.969 138.621 179.699V179.642C138.621 178.941 138.429 178.397 138.046 178.009C137.667 177.62 137.092 177.426 136.32 177.426C135.52 177.426 134.892 177.601 134.438 177.952C133.983 178.302 133.664 178.676 133.479 179.074L131.888 178.506C132.172 177.843 132.551 177.327 133.024 176.957C133.503 176.583 134.023 176.323 134.587 176.176C135.155 176.025 135.714 175.949 136.263 175.949C136.613 175.949 137.016 175.991 137.47 176.077C137.93 176.157 138.372 176.325 138.798 176.581C139.229 176.837 139.587 177.223 139.871 177.739C140.155 178.255 140.297 178.946 140.297 179.812V187H138.621V185.523H138.536C138.422 185.759 138.233 186.013 137.968 186.283C137.702 186.553 137.35 186.782 136.909 186.972C136.469 187.161 135.932 187.256 135.297 187.256ZM135.553 185.75C136.216 185.75 136.774 185.62 137.229 185.359C137.688 185.099 138.034 184.763 138.266 184.351C138.503 183.939 138.621 183.506 138.621 183.051V181.517C138.55 181.602 138.394 181.68 138.152 181.751C137.915 181.818 137.641 181.877 137.328 181.929C137.021 181.976 136.72 182.019 136.426 182.057C136.137 182.09 135.903 182.118 135.723 182.142C135.288 182.199 134.88 182.291 134.502 182.419C134.128 182.542 133.825 182.729 133.593 182.98C133.365 183.226 133.252 183.562 133.252 183.989C133.252 184.571 133.467 185.011 133.898 185.31C134.334 185.603 134.885 185.75 135.553 185.75ZM145.032 184.528L150.288 176.091H152.22V187H150.544V178.562L145.317 187H143.356V176.091H145.032V184.528ZM149.18 172.455H150.743C150.743 173.222 150.478 173.849 149.947 174.337C149.417 174.824 148.697 175.068 147.788 175.068C146.893 175.068 146.181 174.824 145.65 174.337C145.125 173.849 144.862 173.222 144.862 172.455H146.425C146.425 172.824 146.526 173.148 146.73 173.428C146.938 173.707 147.291 173.847 147.788 173.847C148.285 173.847 148.64 173.707 148.854 173.428C149.071 173.148 149.18 172.824 149.18 172.455ZM153.806 177.653V176.091H162.669V177.653H159.09V187H157.414V177.653H153.806ZM169.122 187.227C168.07 187.227 167.164 186.995 166.401 186.531C165.644 186.062 165.059 185.409 164.647 184.571C164.24 183.728 164.036 182.748 164.036 181.631C164.036 180.513 164.24 179.528 164.647 178.676C165.059 177.819 165.632 177.152 166.366 176.673C167.105 176.19 167.966 175.949 168.951 175.949C169.519 175.949 170.08 176.044 170.634 176.233C171.188 176.422 171.693 176.73 172.147 177.156C172.602 177.578 172.964 178.136 173.234 178.832C173.504 179.528 173.639 180.385 173.639 181.403V182.114H165.23V180.665H171.934C171.934 180.049 171.811 179.5 171.565 179.017C171.323 178.534 170.978 178.153 170.528 177.874C170.083 177.594 169.557 177.455 168.951 177.455C168.284 177.455 167.706 177.62 167.218 177.952C166.735 178.278 166.364 178.705 166.103 179.23C165.843 179.756 165.713 180.319 165.713 180.92V181.886C165.713 182.71 165.855 183.409 166.139 183.982C166.427 184.55 166.828 184.983 167.339 185.281C167.85 185.575 168.445 185.722 169.122 185.722C169.562 185.722 169.96 185.66 170.315 185.537C170.675 185.409 170.985 185.22 171.245 184.969C171.506 184.713 171.707 184.396 171.849 184.017L173.468 184.472C173.298 185.021 173.011 185.504 172.609 185.92C172.206 186.332 171.709 186.654 171.117 186.886C170.526 187.114 169.86 187.227 169.122 187.227ZM180.62 187.227C179.597 187.227 178.717 186.986 177.978 186.503C177.24 186.02 176.671 185.355 176.274 184.507C175.876 183.66 175.677 182.691 175.677 181.602C175.677 180.494 175.881 179.517 176.288 178.669C176.7 177.817 177.273 177.152 178.007 176.673C178.745 176.19 179.607 175.949 180.592 175.949C181.359 175.949 182.05 176.091 182.666 176.375C183.281 176.659 183.785 177.057 184.178 177.568C184.571 178.08 184.815 178.676 184.91 179.358H183.234C183.106 178.861 182.822 178.42 182.382 178.037C181.946 177.649 181.359 177.455 180.62 177.455C179.967 177.455 179.394 177.625 178.901 177.966C178.414 178.302 178.033 178.778 177.758 179.393C177.488 180.004 177.353 180.722 177.353 181.545C177.353 182.388 177.486 183.122 177.751 183.747C178.021 184.372 178.4 184.857 178.887 185.203C179.38 185.549 179.957 185.722 180.62 185.722C181.056 185.722 181.451 185.646 181.806 185.494C182.161 185.343 182.462 185.125 182.708 184.841C182.954 184.557 183.13 184.216 183.234 183.818H184.91C184.815 184.462 184.581 185.042 184.207 185.558C183.838 186.07 183.347 186.477 182.737 186.78C182.131 187.078 181.425 187.227 180.62 187.227ZM188.809 180.04H191.934C193.213 180.04 194.19 180.364 194.867 181.013C195.544 181.661 195.883 182.483 195.883 183.477C195.883 184.131 195.731 184.725 195.428 185.26C195.125 185.79 194.68 186.214 194.093 186.531C193.506 186.844 192.786 187 191.934 187H187.36V176.091H189.036V185.438H191.934C192.597 185.438 193.142 185.262 193.568 184.912C193.994 184.562 194.207 184.112 194.207 183.562C194.207 182.985 193.994 182.514 193.568 182.149C193.142 181.785 192.597 181.602 191.934 181.602H188.809V180.04ZM204.059 187V176.091H212.639V187H210.963V177.653H205.736V187H204.059ZM220.132 187.227C219.147 187.227 218.283 186.993 217.54 186.524C216.801 186.055 216.223 185.4 215.807 184.557C215.395 183.714 215.189 182.729 215.189 181.602C215.189 180.466 215.395 179.474 215.807 178.626C216.223 177.779 216.801 177.121 217.54 176.652C218.283 176.183 219.147 175.949 220.132 175.949C221.117 175.949 221.979 176.183 222.717 176.652C223.461 177.121 224.038 177.779 224.45 178.626C224.867 179.474 225.075 180.466 225.075 181.602C225.075 182.729 224.867 183.714 224.45 184.557C224.038 185.4 223.461 186.055 222.717 186.524C221.979 186.993 221.117 187.227 220.132 187.227ZM220.132 185.722C220.88 185.722 221.496 185.53 221.979 185.146C222.461 184.763 222.819 184.259 223.051 183.634C223.283 183.009 223.399 182.331 223.399 181.602C223.399 180.873 223.283 180.194 223.051 179.564C222.819 178.934 222.461 178.425 221.979 178.037C221.496 177.649 220.88 177.455 220.132 177.455C219.384 177.455 218.768 177.649 218.285 178.037C217.802 178.425 217.445 178.934 217.213 179.564C216.981 180.194 216.865 180.873 216.865 181.602C216.865 182.331 216.981 183.009 217.213 183.634C217.445 184.259 217.802 184.763 218.285 185.146C218.768 185.53 219.384 185.722 220.132 185.722ZM226.952 184.216H228.742C228.78 184.708 229.002 185.082 229.409 185.338C229.821 185.594 230.356 185.722 231.014 185.722C231.687 185.722 232.262 185.584 232.74 185.31C233.218 185.03 233.458 184.58 233.458 183.96C233.458 183.596 233.368 183.278 233.188 183.009C233.008 182.734 232.754 182.521 232.428 182.369C232.101 182.218 231.715 182.142 231.27 182.142H229.395V180.636H231.27C231.938 180.636 232.43 180.485 232.747 180.182C233.069 179.879 233.23 179.5 233.23 179.045C233.23 178.558 233.057 178.167 232.712 177.874C232.366 177.575 231.876 177.426 231.242 177.426C230.602 177.426 230.07 177.571 229.644 177.859C229.218 178.143 228.993 178.51 228.969 178.96H227.208C227.227 178.373 227.406 177.855 227.747 177.405C228.088 176.95 228.552 176.595 229.139 176.339C229.727 176.079 230.399 175.949 231.156 175.949C231.923 175.949 232.589 176.084 233.152 176.354C233.72 176.619 234.158 176.981 234.466 177.44C234.779 177.895 234.935 178.411 234.935 178.989C234.935 179.604 234.762 180.101 234.416 180.48C234.071 180.859 233.637 181.129 233.117 181.29V181.403C233.529 181.432 233.886 181.564 234.189 181.801C234.497 182.033 234.736 182.339 234.906 182.717C235.077 183.091 235.162 183.506 235.162 183.96C235.162 184.623 234.985 185.201 234.629 185.693C234.274 186.181 233.787 186.56 233.166 186.83C232.546 187.095 231.838 187.227 231.043 187.227C230.271 187.227 229.58 187.102 228.969 186.851C228.358 186.595 227.873 186.242 227.513 185.793C227.158 185.338 226.971 184.812 226.952 184.216ZM236.835 187L241.267 181.46L236.892 176.091H238.88L242.517 180.75H243.426V176.091H245.102V180.75H245.982L249.619 176.091H251.607L247.261 181.46L251.664 187H249.647L245.954 182.312H245.102V187H243.426V182.312H242.573L238.852 187H236.835ZM258.184 187.227C257.133 187.227 256.226 186.995 255.464 186.531C254.706 186.062 254.122 185.409 253.71 184.571C253.302 183.728 253.099 182.748 253.099 181.631C253.099 180.513 253.302 179.528 253.71 178.676C254.122 177.819 254.695 177.152 255.428 176.673C256.167 176.19 257.029 175.949 258.014 175.949C258.582 175.949 259.143 176.044 259.697 176.233C260.251 176.422 260.755 176.73 261.21 177.156C261.664 177.578 262.026 178.136 262.296 178.832C262.566 179.528 262.701 180.385 262.701 181.403V182.114H254.292V180.665H260.997C260.997 180.049 260.874 179.5 260.627 179.017C260.386 178.534 260.04 178.153 259.59 177.874C259.145 177.594 258.62 177.455 258.014 177.455C257.346 177.455 256.768 177.62 256.281 177.952C255.798 178.278 255.426 178.705 255.166 179.23C254.905 179.756 254.775 180.319 254.775 180.92V181.886C254.775 182.71 254.917 183.409 255.201 183.982C255.49 184.55 255.89 184.983 256.401 185.281C256.913 185.575 257.507 185.722 258.184 185.722C258.624 185.722 259.022 185.66 259.377 185.537C259.737 185.409 260.047 185.22 260.308 184.969C260.568 184.713 260.769 184.396 260.911 184.017L262.531 184.472C262.36 185.021 262.074 185.504 261.671 185.92C261.269 186.332 260.772 186.654 260.18 186.886C259.588 187.114 258.923 187.227 258.184 187.227ZM267.467 172.455L267.325 182.909H265.677L265.535 172.455H267.467ZM266.501 187.114C266.151 187.114 265.85 186.988 265.599 186.737C265.348 186.486 265.222 186.186 265.222 185.835C265.222 185.485 265.348 185.184 265.599 184.933C265.85 184.682 266.151 184.557 266.501 184.557C266.851 184.557 267.152 184.682 267.403 184.933C267.654 185.184 267.779 185.485 267.779 185.835C267.779 186.067 267.72 186.28 267.602 186.474C267.488 186.669 267.334 186.825 267.14 186.943C266.951 187.057 266.738 187.114 266.501 187.114Z" fill="#AEBF80"/>
</svg>
