<svg width="221" height="221" viewBox="0 0 221 221" fill="none" xmlns="http://www.w3.org/2000/svg">
<g clip-path="url(#clip0_2134_387)">
<mask id="mask0_2134_387" style="mask-type:luminance" maskUnits="userSpaceOnUse" x="0" y="0" width="221" height="221">
<path d="M0 -8.58307e-06H221V221H0V-8.58307e-06Z" fill="white"/>
</mask>
<g mask="url(#mask0_2134_387)">
<path d="M209.369 110.5C209.369 165.105 165.105 209.369 110.5 209.369C55.8958 209.369 11.6318 165.105 11.6318 110.5C11.6318 55.8958 55.8958 11.6318 110.5 11.6318C165.105 11.6318 209.369 55.8958 209.369 110.5Z" fill="#D99E82"/>
<path d="M137.472 104.375C144.317 102.136 151.686 105.893 153.913 112.75C156.147 119.612 152.401 126.981 145.533 129.214C138.664 131.447 123.02 130.383 120.787 123.526C118.559 116.658 130.598 106.597 137.472 104.375Z" fill="#8A4B38"/>
<path d="M187.315 100.47C185.105 103.099 181.18 103.448 178.551 101.232C175.922 99.0165 175.579 95.0966 177.789 92.4621C180.005 89.8392 186.594 86.3148 189.223 88.5248C191.858 90.7348 189.531 97.8359 187.315 100.47Z" fill="#8A4B38"/>
<path d="M59.3682 59.76C57.1582 62.3887 53.2326 62.7377 50.6038 60.5218C47.9751 58.306 47.632 54.3862 49.842 51.7516C52.0578 49.1287 58.6471 45.6043 61.2758 47.8143C63.9104 50.0243 61.584 57.1254 59.3682 59.76Z" fill="#8A4B38"/>
<path d="M129.698 48.7442C125.347 45.9642 124.062 40.1834 126.848 35.8331C129.628 31.4771 135.409 30.2035 139.765 32.9834C144.121 35.7692 150.658 44.9058 147.872 49.256C145.086 53.612 134.054 51.53 129.698 48.7442Z" fill="#8A4B38"/>
<path d="M83.5993 84.8995C80.6042 78.6999 83.2271 71.2266 89.4442 68.2431C95.6671 65.2654 103.117 67.8883 106.101 74.1054C109.084 80.3283 110.067 95.2923 103.85 98.2642C97.627 101.254 86.577 91.1282 83.5993 84.8995Z" fill="#8A4B38"/>
<path d="M89.5596 166.898C93.0607 161.815 100.028 160.523 105.099 164.036C110.182 167.555 111.462 174.51 107.949 179.593C104.442 184.676 93.2468 192.08 88.1754 188.573C83.0866 185.06 86.0468 171.975 89.5596 166.898Z" fill="#8A4B38"/>
<path d="M147.792 164.535C143.797 161.999 142.622 156.695 145.181 152.705C147.728 148.716 153.02 147.553 157.016 150.106C161 152.653 166.99 161.022 164.437 165.006C161.89 169.007 151.782 167.094 147.792 164.535Z" fill="#8A4B38"/>
<path d="M38.0099 112.945C42.4415 107.984 50.0544 107.56 55.0095 111.997C59.9587 116.441 60.3832 124.048 55.94 128.991C51.5084 133.964 38.5391 140.361 33.5957 135.924C28.6349 131.48 33.5666 117.895 38.0099 112.945Z" fill="#8A4B38"/>
</g>
</g>
<defs>
<clipPath id="clip0_2134_387">
<rect width="221" height="221" fill="white"/>
</clipPath>
</defs>
</svg>
