<svg width="15" height="15" viewBox="0 0 15 15" fill="var(--color-partner)" xmlns="http://www.w3.org/2000/svg">
<path fill-rule="evenodd" fill="var(--color-partner)" clip-rule="evenodd" d="M7.21875 0.509377C6.78785 0.509377 6.36117 0.594249 5.96307 0.759147C5.56497 0.924045 5.20325 1.16574 4.89856 1.47043C4.59386 1.77512 4.35217 2.13685 4.18727 2.53495C4.02237 2.93305 3.9375 3.35973 3.9375 3.79063C3.9375 4.22153 4.02237 4.64821 4.18727 5.04631C4.35217 5.44441 4.59386 5.80613 4.89856 6.11082C5.20325 6.41551 5.56497 6.65721 5.96307 6.82211C6.36117 6.987 6.78785 7.07188 7.21875 7.07188C8.08899 7.07188 8.92359 6.72617 9.53894 6.11082C10.1543 5.49547 10.5 4.66087 10.5 3.79063C10.5 2.92038 10.1543 2.08579 9.53894 1.47043C8.92359 0.855079 8.08899 0.509377 7.21875 0.509377ZM9.82437 7.55625C10.1275 7.2125 10.5737 6.99375 11.07 6.99375H12.2625C12.4807 6.99375 12.6968 7.03674 12.8984 7.12027C13.1 7.20379 13.2831 7.32621 13.4374 7.48054C13.5917 7.63487 13.714 7.81808 13.7975 8.0197C13.8809 8.22133 13.9238 8.43742 13.9237 8.65563V12.8294C13.9237 13.0475 13.8808 13.2636 13.7973 13.4651C13.7138 13.6667 13.5914 13.8498 13.4372 14.0041C13.2829 14.1583 13.0998 14.2807 12.8982 14.3642C12.6967 14.4477 12.4807 14.4906 12.2625 14.4906H11.07C10.5737 14.4906 10.1275 14.2719 9.82437 13.9281C9.78119 13.8824 9.74765 13.8285 9.72575 13.7695C9.70385 13.7106 9.69404 13.6478 9.6969 13.585C9.69975 13.5222 9.71522 13.4606 9.74238 13.4038C9.76954 13.3471 9.80783 13.2964 9.85499 13.2548C9.90214 13.2132 9.95718 13.1815 10.0168 13.1616C10.0765 13.1417 10.1395 13.134 10.2022 13.139C10.2649 13.144 10.326 13.1615 10.3817 13.1906C10.4375 13.2196 10.4869 13.2596 10.5269 13.3081C10.66 13.4588 10.8537 13.5531 11.07 13.5531H12.2625C12.6625 13.5531 12.9862 13.2288 12.9862 12.8294V8.65563C12.9862 8.25563 12.6625 7.93125 12.2625 7.93125H11.07C10.8537 7.93125 10.66 8.02563 10.5269 8.17688C10.4861 8.22304 10.4367 8.26073 10.3814 8.28779C10.326 8.31485 10.2659 8.33075 10.2045 8.33458C10.0804 8.34232 9.95824 8.30043 9.865 8.21813C9.77176 8.13583 9.71503 8.01986 9.7073 7.89573C9.69956 7.77161 9.74207 7.64949 9.82437 7.55625Z"/>
<path fill-rule="evenodd" fill="var(--color-partner)" clip-rule="evenodd" d="M11.2094 10.4106C11.2971 10.4985 11.3464 10.6177 11.3464 10.7419C11.3464 10.8661 11.2971 10.9852 11.2094 11.0731L9.95935 12.3231C9.87099 12.4086 9.7526 12.4559 9.62969 12.4549C9.50679 12.4538 9.3892 12.4046 9.30225 12.3177C9.21529 12.2309 9.16594 12.1133 9.16481 11.9904C9.16369 11.8675 9.21088 11.7491 9.29623 11.6606L10.5462 10.4106C10.6341 10.3228 10.7533 10.2735 10.8775 10.2735C11.0017 10.2735 11.1215 10.3228 11.2094 10.4106Z" />
<path fill-rule="evenodd" fill="var(--color-partner)" clip-rule="evenodd" d="M11.2094 11.0737C11.2971 10.9859 11.3464 10.8667 11.3464 10.7425C11.3464 10.6183 11.2971 10.4991 11.2094 10.4113L9.95935 9.16125C9.87099 9.07582 9.7526 9.02852 9.62969 9.02953C9.50679 9.03054 9.3892 9.07978 9.30225 9.16665C9.21529 9.25352 9.16594 9.37106 9.16481 9.49397C9.16369 9.61687 9.21088 9.7353 9.29623 9.82375L10.5462 11.0737C10.6341 11.1615 10.7533 11.2108 10.8775 11.2108C11.0017 11.2108 11.1215 11.1615 11.2094 11.0737Z" />
<path fill-rule="evenodd" fill="var(--color-partner)" clip-rule="evenodd" d="M6.97119 10.7425C6.97119 10.6182 7.02058 10.499 7.10848 10.411C7.19639 10.3231 7.31562 10.2738 7.43994 10.2738H10.5649C10.6893 10.2738 10.8085 10.3231 10.8964 10.411C10.9843 10.499 11.0337 10.6182 11.0337 10.7425C11.0337 10.8668 10.9843 10.986 10.8964 11.074C10.8085 11.1619 10.6893 11.2113 10.5649 11.2113H7.43994C7.31562 11.2113 7.19639 11.1619 7.10848 11.074C7.02058 10.986 6.97119 10.8668 6.97119 10.7425Z"/>
<path fill="var(--color-partner)" d="M8.61755 8.51375C6.21286 8.21888 3.77565 8.67054 1.6363 9.8075C1.29755 9.9875 1.0863 10.3388 1.0863 10.7225V13.0175C1.0863 13.6213 1.57568 14.1113 2.18005 14.1113H8.85818C8.74434 13.8055 8.73992 13.4698 8.84568 13.1613C8.67568 13.0473 8.53255 12.8977 8.42623 12.7229C8.31992 12.548 8.25297 12.3521 8.23005 12.1488H7.44005C7.25538 12.1488 7.07252 12.1124 6.90191 12.0417C6.73129 11.971 6.57627 11.8675 6.44568 11.7369C6.3151 11.6063 6.21152 11.4513 6.14085 11.2807C6.07018 11.11 6.0338 10.9272 6.0338 10.7425C6.0338 10.5578 6.07018 10.375 6.14085 10.2044C6.21152 10.0337 6.3151 9.87872 6.44568 9.74813C6.57627 9.61755 6.73129 9.51397 6.90191 9.4433C7.07252 9.37263 7.25538 9.33625 7.44005 9.33625H8.23005C8.26412 9.02661 8.40048 8.73717 8.61755 8.51375Z"/>
</svg>
