<svg width="12" height="21" viewBox="0 0 12 21" fill="none" xmlns="http://www.w3.org/2000/svg">
<path d="M3.87052 20.9455C4.13509 21.0589 4.4427 20.9642 4.59724 20.7194L11.6285 9.5154C11.6845 9.4265 11.7156 9.32416 11.7187 9.21906C11.7219 9.11397 11.6968 9.00995 11.6462 8.91787C11.5956 8.82579 11.5213 8.74901 11.431 8.69554C11.3407 8.64207 11.2378 8.61387 11.1329 8.61387H6.44028L8.18552 1.6678C8.25591 1.38718 8.11341 1.09737 7.84849 0.983173C7.58528 0.869566 7.27571 0.9648 7.12177 1.20925L0.0905151 12.4133C0.0345402 12.5022 0.00337147 12.6045 0.000258456 12.7096C-0.00285456 12.8147 0.022202 12.9187 0.0728161 13.0108C0.12343 13.1029 0.197748 13.1797 0.288022 13.2332C0.378296 13.2866 0.481219 13.3148 0.586062 13.3148H5.27872L3.53348 20.2609C3.46309 20.5416 3.60556 20.8313 3.87052 20.9455Z" fill="#FF0013"/>
</svg>
