<svg width="15" height="15" viewBox="0 0 15 15" fill="none" xmlns="http://www.w3.org/2000/svg">
<path d="M15 5.28221C14.9971 6.45702 14.4785 7.57616 13.667 8.58397C12.9434 9.48045 12.0586 10.2099 11.1885 10.9541C10.2481 11.7598 9.32521 12.5918 8.39943 13.418C8.25587 13.5439 8.14162 13.7051 8.00685 13.8398C7.72853 14.1152 7.28615 14.1474 7.03127 13.8603C5.74806 12.4131 4.16603 11.3056 2.73927 10.0224C1.91896 9.28416 1.14552 8.49901 0.626969 7.50584C-0.0732268 6.16405 -0.222641 4.76952 0.363297 3.35741C0.928726 1.9951 2.00392 1.25975 3.4424 1.01073C4.79591 0.776352 5.90334 1.28319 6.90822 2.11815C7.06349 2.24413 7.20998 2.37889 7.34767 2.52538C7.46486 2.65135 7.54103 2.65721 7.66701 2.52831C8.22658 1.96288 8.85353 1.47948 9.60939 1.20116C10.9219 0.714829 12.1699 0.922836 13.3037 1.69041C14.4551 2.46678 15.0205 3.69725 15 5.28221Z" 
fill="var(--color-like)"/>
</svg>
