<svg width="19" height="19" viewBox="0 0 19 19" fill="none" xmlns="http://www.w3.org/2000/svg">
<g clip-path="url(#clip0_1_38)">
<path fill-rule="evenodd" clip-rule="evenodd" d="M9.50003 -0.000991821C13.0578 -0.000991821 16.0226 2.96377 16.0226 6.52158C16.0226 7.68273 15.6234 8.82788 15.0656 9.86541C14.5057 10.907 13.7644 11.8795 13.028 12.7075C12.2901 13.537 11.5446 14.2355 10.9637 14.7289C10.6736 14.9754 10.4197 15.1749 10.2239 15.3162C10.1272 15.3859 10.0366 15.4473 9.9584 15.4942C9.92035 15.517 9.87397 15.5434 9.82465 15.5662C9.8001 15.5774 9.76479 15.5926 9.72265 15.6061C9.68951 15.6166 9.60667 15.6415 9.50003 15.6415C9.39243 15.6415 9.30894 15.6162 9.27569 15.6055C9.23333 15.5918 9.19788 15.5765 9.17329 15.5651C9.12388 15.542 9.07747 15.5155 9.03942 15.4925C8.96125 15.4451 8.8707 15.3832 8.77408 15.3129C8.57842 15.1707 8.32458 14.9698 8.0346 14.7217C7.45402 14.2253 6.70884 13.5233 5.97136 12.6914C5.23534 11.8613 4.49445 10.8879 3.93465 9.84877C3.37726 8.81409 2.97746 7.67363 2.97746 6.52158C2.97746 2.96377 5.94222 -0.000991821 9.50003 -0.000991821ZM9.50003 8.46956C8.42416 8.46956 7.55202 7.59742 7.55202 6.52158C7.55202 5.44573 8.42416 4.57357 9.50003 4.57357C10.5759 4.57357 11.448 5.44573 11.448 6.52158C11.448 7.59742 10.5759 8.46956 9.50003 8.46956ZM13.7061 13.7837C13.9564 13.5022 14.207 13.2073 14.4529 12.9009H16.2757C16.5471 12.9009 16.7925 13.0627 16.8994 13.3122L18.932 18.0552C19.0218 18.2648 19.0004 18.5056 18.8749 18.696C18.7493 18.8864 18.5364 19.001 18.3084 19.001H0.691669C0.463573 19.001 0.250735 18.8864 0.12517 18.696C-0.000395132 18.5056 -0.0218878 18.2648 0.0679644 18.0552L2.10065 13.3122C2.20758 13.0627 2.45291 12.9009 2.72437 12.9009H4.56374C4.80405 13.2001 5.04868 13.4885 5.29309 13.7641C6.19088 14.7768 7.09819 15.6317 7.80455 16.2356C8.15742 16.5375 8.46504 16.7808 8.70063 16.9521C8.81721 17.0369 8.92426 17.1099 9.01486 17.1647C9.05912 17.1916 9.11073 17.2209 9.16424 17.2459C9.1909 17.2584 9.22812 17.2744 9.27197 17.2885C9.30673 17.2998 9.39144 17.3253 9.49994 17.3253C9.60752 17.3253 9.69159 17.3002 9.72622 17.2892C9.76987 17.2752 9.80696 17.2593 9.83356 17.247C9.88699 17.2223 9.93855 17.1932 9.98282 17.1666C10.0734 17.1122 10.1805 17.0397 10.2972 16.9556C10.5329 16.7856 10.8406 16.544 11.1937 16.2441C11.9003 15.6438 12.808 14.7934 13.7061 13.7837Z" fill="#089708" fill-opacity="0.83"/>
</g>
<defs>
<clipPath id="clip0_1_38">
<rect width="19" height="19" fill="white"/>
</clipPath>
</defs>
</svg>
