<svg width="10" height="14" viewBox="0 0 10 14" fill="none" xmlns="http://www.w3.org/2000/svg" id="location">
<path d="M4.66667 13.3333C4.51111 13.3333 4.37778 13.2889 4.26667 13.2C4.15556 13.1111 4.07222 12.9944 4.01667 12.85C3.80556 12.2278 3.53889 11.6444 3.21667 11.1C2.90556 10.5556 2.46667 9.91667 1.9 9.18333C1.33333 8.45 0.872222 7.75 0.516667 7.08333C0.172222 6.41667 0 5.61111 0 4.66667C0 3.36667 0.45 2.26667 1.35 1.36667C2.26111 0.455555 3.36667 0 4.66667 0C5.96667 0 7.06667 0.455555 7.96667 1.36667C8.87778 2.26667 9.33333 3.36667 9.33333 4.66667C9.33333 5.67778 9.13889 6.52222 8.75 7.2C8.37222 7.86667 7.93333 8.52778 7.43333 9.18333C6.83333 9.98333 6.37778 10.65 6.06667 11.1833C5.76667 11.7056 5.51667 12.2611 5.31667 12.85C5.26111 13.0056 5.17222 13.1278 5.05 13.2167C4.93889 13.2944 4.81111 13.3333 4.66667 13.3333ZM4.66667 10.95C4.85556 10.5722 5.06667 10.2 5.3 9.83333C5.54444 9.46667 5.9 8.97778 6.36667 8.36667C6.84445 7.74444 7.23333 7.17222 7.53333 6.65C7.84444 6.11667 8 5.45555 8 4.66667C8 3.74444 7.67222 2.96111 7.01667 2.31667C6.37222 1.66111 5.58889 1.33333 4.66667 1.33333C3.74444 1.33333 2.95556 1.66111 2.3 2.31667C1.65556 2.96111 1.33333 3.74444 1.33333 4.66667C1.33333 5.45555 1.48333 6.11667 1.78333 6.65C2.09444 7.17222 2.48889 7.74444 2.96667 8.36667C3.43333 8.97778 3.78333 9.46667 4.01667 9.83333C4.26111 10.2 4.47778 10.5722 4.66667 10.95ZM4.66667 6.33333C5.13333 6.33333 5.52778 6.17222 5.85 5.85C6.17222 5.52778 6.33333 5.13333 6.33333 4.66667C6.33333 4.2 6.17222 3.80555 5.85 3.48333C5.52778 3.16111 5.13333 3 4.66667 3C4.2 3 3.80556 3.16111 3.48333 3.48333C3.16111 3.80555 3 4.2 3 4.66667C3 5.13333 3.16111 5.52778 3.48333 5.85C3.80556 6.17222 4.2 6.33333 4.66667 6.33333Z" 
fill="var(--color-location)"/>
</svg>
