<svg width="137" height="62" viewBox="0 0 137 62" fill="none" xmlns="http://www.w3.org/2000/svg">
<g clip-path="url(#clip0_54_81)">
<path d="M11.8003 48.4739L10.3664 49.7337C9.17448 48.7377 8.00542 48.2829 6.87288 48.2829C6.20641 48.262 5.55313 48.4708 5.02338 48.8741C4.78977 49.033 4.59751 49.2449 4.46251 49.4925C4.3275 49.74 4.25365 50.0161 4.24705 50.2977C4.25621 50.5558 4.31709 50.8094 4.4261 51.0437C4.53511 51.2781 4.69005 51.4883 4.88182 51.6621C5.30652 52.1169 6.20158 52.6263 7.55788 53.2267C9.21102 53.9544 10.3359 54.6578 10.9327 55.337C11.4979 55.9785 11.8096 56.803 11.8095 57.6565C11.8118 58.25 11.6777 58.8361 11.4172 59.3698C11.1568 59.9036 10.777 60.3708 10.307 60.7356C9.25495 61.597 7.9235 62.0466 6.56235 62C5.58021 62.0035 4.60708 61.8134 3.69905 61.4406C2.84037 61.1061 2.06905 60.5821 1.44312 59.9079L2.84508 58.5434C3.30972 59.042 3.86903 59.4438 4.49064 59.7256C5.11225 60.0074 5.78381 60.1637 6.46645 60.1853C7.28899 60.2067 8.0943 59.9484 8.74978 59.4531C9.03249 59.2616 9.2653 59.0057 9.4289 58.7068C9.5925 58.4078 9.68219 58.0743 9.69052 57.7339C9.68951 57.463 9.63403 57.195 9.52737 56.9459C9.4207 56.6967 9.265 56.4713 9.06945 56.283C8.65541 55.8646 7.71924 55.3416 6.26095 54.7139C4.69915 54.0271 3.63055 53.3495 3.06428 52.6809C2.51199 52.0515 2.20988 51.2427 2.21488 50.4068C2.21168 49.869 2.33373 49.3377 2.57143 48.8548C2.80914 48.3718 3.15604 47.9503 3.58488 47.6234C4.55398 46.8625 5.76296 46.4692 6.99618 46.5136C8.57929 46.5106 10.1807 47.164 11.8003 48.4739Z" fill="#45372F"/>
<path d="M15.4216 46.8729H17.6365V53.7633C17.5813 54.9295 17.6905 56.0976 17.9607 57.2335C18.2851 58.1466 18.9352 58.909 19.7874 59.3757C20.7637 59.9165 21.8672 60.1881 22.984 60.1625C24.0888 60.1967 25.1823 59.9327 26.1487 59.3985C26.9657 58.9498 27.605 58.2376 27.9617 57.3791C28.1809 56.806 28.2951 55.6008 28.2951 53.7406V46.8729H30.5784V54.109C30.5784 56.1465 30.2998 57.6747 29.7427 58.7026C29.1735 59.7474 28.2949 60.5923 27.2265 61.1222C25.9145 61.7484 24.47 62.0495 23.016 62C21.5578 62.0476 20.1093 61.7466 18.7918 61.1222C17.7124 60.5928 16.8262 59.7404 16.2573 58.6844C15.7002 57.6429 15.4216 56.0692 15.4216 53.9771V46.8729Z" fill="#45372F"/>
<path d="M37.4512 41.3652H39.666V46.873H43.1869V48.5103H39.666V61.6362H37.4512V48.5103H34.4189V46.873H37.4512V41.3652Z" fill="#45372F"/>
<path d="M46.5708 41.1696H48.7856V52.84L56.8686 46.8729H60.0973L50.5666 53.9043L60.6498 61.6361H57.4943L48.7856 54.9595V61.6361H46.5708V41.1696Z" fill="#45372F"/>
<path d="M63.7095 40.8104C64.1824 40.7947 64.6438 40.9571 65.0019 41.2652C65.17 41.3971 65.3059 41.5653 65.3994 41.7572C65.4928 41.949 65.5414 42.1594 65.5414 42.3726C65.5414 42.5858 65.4928 42.7963 65.3994 42.9881C65.3059 43.1799 65.17 43.3482 65.0019 43.4801C64.6401 43.7797 64.1845 43.9438 63.7141 43.9438C63.2436 43.9438 62.788 43.7797 62.4263 43.4801C62.2581 43.3482 62.1222 43.1799 62.0287 42.9881C61.9353 42.7963 61.8867 42.5858 61.8867 42.3726C61.8867 42.1594 61.9353 41.949 62.0287 41.7572C62.1222 41.5653 62.2581 41.3971 62.4263 41.2652C62.7813 40.9581 63.2395 40.7957 63.7095 40.8104ZM62.6044 46.873H64.8466V61.6362H62.6272L62.6044 46.873Z" fill="#45372F"/>
<path d="M71.9021 58.6344C72.4033 58.6236 72.8909 58.7968 73.2721 59.121C73.4503 59.2643 73.5942 59.4454 73.6929 59.6512C73.7917 59.857 73.843 60.0823 73.843 60.3104C73.843 60.5385 73.7917 60.7637 73.6929 60.9695C73.5942 61.1753 73.4503 61.3565 73.2721 61.4997C72.8934 61.8296 72.4052 62.0079 71.9021 62C71.3994 62.0053 70.9122 61.8274 70.5321 61.4997C70.3538 61.3565 70.21 61.1753 70.1112 60.9695C70.0125 60.7637 69.9612 60.5385 69.9612 60.3104C69.9612 60.0823 70.0125 59.857 70.1112 59.6512C70.21 59.4454 70.3538 59.2643 70.5321 59.121C70.9148 58.7994 71.4014 58.6265 71.9021 58.6344Z" fill="#45372F"/>
<path d="M77.6333 46.8729H79.9166V49.0287C80.5013 48.2617 81.2323 47.6172 82.0675 47.1321C82.7882 46.727 83.601 46.5125 84.4285 46.509C85.1154 46.5271 85.7894 46.698 86.4013 47.0093L85.2414 48.6057C84.6943 48.3684 84.0907 48.2911 83.5011 48.3829C82.9116 48.4747 82.3605 48.7318 81.9123 49.1242C81.1484 49.7517 80.5968 50.598 80.3322 51.5484C80.0521 52.3852 79.9136 54.0847 79.9166 56.6468V61.6497H77.6333V46.8729Z" fill="#45372F"/>
<path d="M102.896 56.7423L104.778 57.5837C104.222 58.5362 103.496 59.3794 102.636 60.0716C101.813 60.7039 100.886 61.1887 99.8959 61.5042C98.7849 61.85 97.6256 62.0174 96.4618 62C93.6274 62 91.4125 61.2116 89.8173 59.6349C89.0721 58.9559 88.4752 58.1314 88.0636 57.2129C87.6519 56.2943 87.4343 55.3013 87.4243 54.2955C87.4209 52.4277 88.1501 50.6325 89.4565 49.2925C91.1644 47.4369 93.4584 46.5075 96.3385 46.5045C99.2977 46.5045 101.668 47.4596 103.431 49.3653C104.697 50.7348 105.384 52.5384 105.348 54.4001H89.7168C89.7172 55.198 89.8903 55.9865 90.2245 56.7117C90.5586 57.437 91.0459 58.0819 91.6531 58.6025C92.9331 59.7058 94.5825 60.2902 96.2745 60.2398C97.1508 60.2422 98.0223 60.1118 98.8593 59.8533C99.625 59.6294 100.348 59.2789 100.996 58.8163C101.734 58.2257 102.375 57.5245 102.896 56.7378V56.7423ZM102.919 52.7673C102.681 51.867 102.233 51.0351 101.613 50.3386C100.971 49.6865 100.191 49.186 99.3296 48.8741C98.3879 48.5024 97.3834 48.3141 96.3704 48.3192C94.7861 48.2763 93.2336 48.7667 91.9636 49.7109C90.99 50.5012 90.2799 51.5668 89.9269 52.7673H102.919Z" fill="#45372F"/>
<path d="M109.463 46.873H111.678V49.5154C112.497 48.559 113.508 47.7843 114.646 47.2414C115.757 46.7395 116.965 46.485 118.185 46.4955C119.392 46.4707 120.583 46.7608 121.642 47.3369C122.601 47.85 123.379 48.6437 123.871 49.6109C124.327 50.557 124.588 52.0351 124.588 54.0408V61.6316H122.387V54.6002C122.434 53.4604 122.35 52.3189 122.135 51.1982C121.919 50.3061 121.383 49.5233 120.628 48.9969C119.769 48.4699 118.769 48.2131 117.761 48.2601C116.459 48.2449 115.187 48.645 114.13 49.4017C113.122 50.0724 112.377 51.0681 112.02 52.2216C111.749 53.5391 111.64 54.8847 111.696 56.2285V61.6362H109.463V46.873Z" fill="#45372F"/>
<path d="M131.264 41.3652H133.479V46.873H137V48.5103H133.479V61.6362H131.264V48.5103H128.232V46.873H131.264V41.3652Z" fill="#45372F"/>
<path fill-rule="evenodd" clip-rule="evenodd" d="M22.3081 5.78979L62.5039 18.5382L71.3404 30.8772L42.1548 30.9409L22.3081 5.78979Z" fill="#AEBF80"/>
<path fill-rule="evenodd" clip-rule="evenodd" d="M64.2529 18.0197L73.6146 30.9227L103.161 0L77.8068 11.7433L77.7611 16.5552L76.4277 16.6416L76.3455 10.4379L70.4225 12.6802L70.5093 15.0043L64.2529 18.0197Z" fill="#AEBF80"/>
<path fill-rule="evenodd" clip-rule="evenodd" d="M101.631 4.07507L104.134 1.06421L131.346 30.9363L125.798 31.0864L101.631 4.07507Z" fill="#574A3E"/>
<path fill-rule="evenodd" clip-rule="evenodd" d="M21.34 7.04956L23.4635 9.46461L4.6717 31.0727L0 31.1273L21.34 7.04956Z" fill="#574A3E"/>
<path fill-rule="evenodd" clip-rule="evenodd" d="M19.3215 17.8696H23.2489V22.1312H19.3215V17.8696ZM24.4727 17.8696H28.4001V22.1267H24.4727V17.8696ZM19.3398 23.4502H23.29V27.7118H19.3626L19.3398 23.4502ZM24.4864 23.4502H28.4138V27.7118H24.4864V23.4502Z" fill="#524A3A"/>
<path fill-rule="evenodd" clip-rule="evenodd" d="M96.0278 16.4869H100.7V21.5535H96.0278V16.4869ZM102.156 16.4869H106.833V21.5763H102.156V16.4869ZM96.0461 23.1272H100.722V28.1984H96.0461V23.1272ZM102.175 23.1499H106.86V28.2165H102.175V23.1499Z" fill="#594D36"/>
</g>
<defs>
<clipPath id="clip0_54_81">
<rect width="137" height="62" fill="white"/>
</clipPath>
</defs>
</svg>
