<svg width="89" height="41" viewBox="0 0 89 41" fill="none" xmlns="http://www.w3.org/2000/svg">
<mask id="mask0_1_9" style="mask-type:luminance" maskUnits="userSpaceOnUse" x="0" y="0" width="89" height="41">
<path d="M88.3871 0.057579H0V40.1727H88.3871V0.057579Z" fill="white"/>
</mask>
<g mask="url(#mask0_1_9)">
<path d="M7.6131 31.4211L6.688 32.2362C5.91902 31.5918 5.16479 31.2975 4.43412 31.2975C4.00414 31.284 3.58266 31.4191 3.24089 31.68C3.09017 31.7828 2.96614 31.9199 2.87904 32.0802C2.79194 32.2403 2.74429 32.4189 2.74003 32.6011C2.74594 32.7681 2.78522 32.9322 2.85555 33.0838C2.92588 33.2355 3.02584 33.3715 3.14956 33.4839C3.42356 33.7782 4.00102 34.1078 4.87605 34.4962C5.94259 34.9671 6.66832 35.4222 7.05336 35.8617C7.418 36.2767 7.6191 36.8102 7.61903 37.3624C7.62052 37.7464 7.534 38.1256 7.36594 38.4709C7.19794 38.8163 6.9529 39.1186 6.64968 39.3546C5.97094 39.912 5.11194 40.2029 4.23377 40.1727C3.60014 40.175 2.97231 40.052 2.38648 39.8108C1.8325 39.5944 1.33487 39.2553 0.931046 38.8191L1.83554 37.9363C2.1353 38.2589 2.49615 38.5188 2.89719 38.7012C3.29823 38.8835 3.73149 38.9846 4.1719 38.9986C4.70257 39.0124 5.22213 38.8453 5.64502 38.5248C5.82741 38.4009 5.97761 38.2354 6.08316 38.042C6.18871 37.8485 6.24657 37.6327 6.25195 37.4125C6.2513 37.2372 6.2155 37.0638 6.14669 36.9026C6.07787 36.7414 5.97742 36.5956 5.85126 36.4737C5.58414 36.203 4.98015 35.8646 4.03932 35.4585C3.03171 35.0141 2.34229 34.5757 1.97696 34.1431C1.62064 33.7359 1.42573 33.2126 1.42896 32.6717C1.42689 32.3238 1.50563 31.98 1.65899 31.6675C1.81235 31.355 2.03616 31.0823 2.31283 30.8708C2.93805 30.3785 3.71804 30.124 4.51366 30.1527C5.53503 30.1508 6.56819 30.5736 7.6131 31.4211Z" fill="#202020"/>
<path d="M9.94942 30.3852H11.3784V34.8434C11.3428 35.598 11.4132 36.3538 11.5875 37.0887C11.7968 37.6795 12.2163 38.1728 12.7661 38.4748C13.3959 38.8247 14.1079 39.0004 14.8284 38.9838C15.5412 39.006 16.2466 38.8352 16.8701 38.4895C17.3972 38.1992 17.8097 37.7384 18.0398 37.1829C18.1812 36.8121 18.2549 36.0323 18.2549 34.8287V30.3852H19.728V35.0671C19.728 36.3854 19.5483 37.3742 19.1888 38.0393C18.8216 38.7153 18.2548 39.2619 17.5655 39.6048C16.719 40.0099 15.7871 40.2048 14.849 40.1727C13.9083 40.2035 12.9737 40.0088 12.1237 39.6048C11.4274 39.2622 10.8556 38.7107 10.4886 38.0275C10.1292 37.3536 9.94942 36.3354 9.94942 34.9818V30.3852Z" fill="#202020"/>
<path d="M24.1621 26.8216H25.591V30.3853H27.8625V31.4446H25.591V39.9373H24.1621V31.4446H22.2057V30.3853H24.1621V26.8216Z" fill="#202020"/>
<path d="M30.0457 26.6951H31.4746V34.246L36.6894 30.3852H38.7725L32.6236 34.9347L39.1289 39.9373H37.0931L31.4746 35.6174V39.9373H30.0457V26.6951Z" fill="#202020"/>
<path d="M41.1029 26.4627C41.408 26.4525 41.7057 26.5576 41.9367 26.7569C42.0452 26.8423 42.1328 26.9511 42.1932 27.0753C42.2534 27.1994 42.2848 27.3355 42.2848 27.4734C42.2848 27.6114 42.2534 27.7476 42.1932 27.8717C42.1328 27.9958 42.0452 28.1047 41.9367 28.19C41.7033 28.3839 41.4094 28.49 41.1059 28.49C40.8023 28.49 40.5084 28.3839 40.275 28.19C40.1665 28.1047 40.0788 27.9958 40.0185 27.8717C39.9583 27.7476 39.9269 27.6114 39.9269 27.4734C39.9269 27.3355 39.9583 27.1994 40.0185 27.0753C40.0788 26.9511 40.1665 26.8423 40.275 26.7569C40.5041 26.5582 40.7997 26.4532 41.1029 26.4627ZM40.3899 30.3853H41.8365V39.9373H40.4047L40.3899 30.3853Z" fill="#202020"/>
<path d="M46.3885 37.9951C46.7118 37.9881 47.0264 38.1002 47.2723 38.31C47.3873 38.4027 47.4801 38.5199 47.5438 38.653C47.6076 38.7862 47.6407 38.9319 47.6407 39.0795C47.6407 39.2271 47.6076 39.3728 47.5438 39.506C47.4801 39.6391 47.3873 39.7564 47.2723 39.849C47.028 40.0625 46.713 40.1778 46.3885 40.1727C46.0641 40.1762 45.7498 40.0611 45.5046 39.849C45.3896 39.7564 45.2968 39.6391 45.233 39.506C45.1694 39.3728 45.1363 39.2271 45.1363 39.0795C45.1363 38.9319 45.1694 38.7862 45.233 38.653C45.2968 38.5199 45.3896 38.4027 45.5046 38.31C45.7515 38.1019 46.0654 37.99 46.3885 37.9951Z" fill="#202020"/>
<path d="M50.086 30.3852H51.5591V31.7801C51.9363 31.2838 52.4079 30.8668 52.9468 30.5529C53.4117 30.2908 53.9361 30.152 54.47 30.1498C54.9132 30.1615 55.348 30.2721 55.7428 30.4735L54.9945 31.5064C54.6415 31.3528 54.2521 31.3028 53.8717 31.3622C53.4914 31.4216 53.1358 31.588 52.8466 31.8418C52.3538 32.2479 51.9979 32.7954 51.8272 33.4104C51.6465 33.9518 51.5572 35.0514 51.5591 36.7091V39.9461H50.086V30.3852Z" fill="#202020"/>
<path d="M66.3845 36.7709L67.5987 37.3153C67.24 37.9316 66.7716 38.4772 66.2168 38.925C65.6858 39.3341 65.0877 39.6478 64.449 39.8519C63.7322 40.0757 62.9843 40.184 62.2334 40.1727C60.4048 40.1727 58.9758 39.6626 57.9466 38.6425C57.4659 38.2031 57.0808 37.6697 56.8152 37.0754C56.5496 36.481 56.4092 35.8386 56.4028 35.1878C56.4006 33.9793 56.871 32.8178 57.7139 31.9507C58.8157 30.7501 60.2957 30.1488 62.1539 30.1469C64.063 30.1469 65.5923 30.7648 66.7297 31.9978C67.5465 32.8839 67.9897 34.0509 67.9665 35.2555H57.8818C57.8821 35.7717 57.9937 36.2819 58.2094 36.7511C58.4249 37.2204 58.7393 37.6377 59.131 37.9745C59.9568 38.6883 61.021 39.0665 62.1126 39.0339C62.6779 39.0354 63.2402 38.951 63.7802 38.7838C64.2742 38.6389 64.7407 38.4121 65.1587 38.1128C65.6348 37.7307 66.0484 37.277 66.3845 36.768V36.7709ZM66.3994 34.199C66.2458 33.6165 65.9568 33.0782 65.5568 32.6276C65.1426 32.2057 64.6394 31.8818 64.0836 31.68C63.4761 31.4395 62.828 31.3177 62.1745 31.321C61.1523 31.2932 60.1507 31.6105 59.3314 32.2215C58.7032 32.7328 58.2451 33.4223 58.0174 34.199H66.3994Z" fill="#202020"/>
<path d="M70.6213 30.3853H72.0503V32.095C72.5787 31.4762 73.231 30.9749 73.9652 30.6236C74.6819 30.2989 75.4613 30.1342 76.2484 30.141C77.0271 30.125 77.7955 30.3127 78.4787 30.6854C79.0974 31.0174 79.5993 31.531 79.9168 32.1568C80.211 32.7689 80.3793 33.7253 80.3793 35.023V39.9344H78.9593V35.3849C78.9897 34.6475 78.9355 33.9089 78.7968 33.1838C78.6574 32.6066 78.3116 32.1001 77.8245 31.7595C77.2703 31.4185 76.6252 31.2524 75.9748 31.2828C75.1348 31.2729 74.3142 31.5318 73.6322 32.0214C72.9819 32.4554 72.5013 33.0996 72.271 33.8459C72.0961 34.6984 72.0258 35.569 72.0619 36.4385V39.9373H70.6213V30.3853Z" fill="#202020"/>
<path d="M84.6865 26.8216H86.1155V30.3853H88.3871V31.4446H86.1155V39.9373H84.6865V31.4446H82.7303V30.3853H84.6865V26.8216Z" fill="#202020"/>
<path fill-rule="evenodd" clip-rule="evenodd" d="M14.3923 3.80368L40.3251 12.0521L46.0261 20.0357L27.1966 20.0769L14.3923 3.80368Z" fill="var(--color-logo)"/>
<path fill-rule="evenodd" clip-rule="evenodd" d="M41.4535 11.7167L47.4933 20.0651L66.5555 0.057579L50.1979 7.65571L50.1685 10.7691L49.3082 10.825L49.2552 6.81109L45.4339 8.2619L45.4899 9.76564L41.4535 11.7167Z" fill="var(--color-logo)"/>
<path fill-rule="evenodd" clip-rule="evenodd" d="M65.5684 2.69423L67.1832 0.746143L84.7394 20.0739L81.16 20.1711L65.5684 2.69423Z" fill="#202020"/>
<path fill-rule="evenodd" clip-rule="evenodd" d="M13.7677 4.61878L15.1377 6.18136L3.014 20.1622L0 20.1975L13.7677 4.61878Z" fill="#202020"/>
<path fill-rule="evenodd" clip-rule="evenodd" d="M12.4655 11.6195H14.9993V14.3769H12.4655V11.6195ZM15.7888 11.6195H18.3226V14.374H15.7888V11.6195ZM12.4773 15.2303H15.0258V17.9876H12.492L12.4773 15.2303ZM15.7977 15.2303H18.3315V17.9876H15.7977V15.2303Z" fill="#202020"/>
<path fill-rule="evenodd" clip-rule="evenodd" d="M61.9534 10.7249H64.9677V14.0031H61.9534V10.7249ZM65.9071 10.7249H68.9245V14.0178H65.9071V10.7249ZM61.9652 15.0213H64.9819V18.3025H61.9652V15.0213ZM65.9194 15.036H68.9419V18.3142H65.9194V15.036Z" fill="#202020"/>
</g>
</svg>
