<svg width="89" height="39" viewBox="0 0 89 39" fill="none" xmlns="http://www.w3.org/2000/svg">
<mask id="mask0_2087_140" style="mask-type:luminance" maskUnits="userSpaceOnUse" x="0" y="0" width="89" height="39">
<path d="M88.3871 0.145508H0V38.4324H88.3871V0.145508Z" fill="white"/>
</mask>
<g mask="url(#mask0_2087_140)">
<path d="M7.6132 30.0798L6.6881 30.8578C5.91912 30.2427 5.16489 29.9619 4.43422 29.9619C4.00424 29.949 3.58277 30.0779 3.241 30.327C3.09028 30.4251 2.96624 30.5559 2.87915 30.7088C2.79204 30.8617 2.7444 31.0322 2.74014 31.2061C2.74605 31.3655 2.78533 31.5221 2.85565 31.6668C2.92598 31.8115 3.02595 31.9413 3.14967 32.0486C3.42367 32.3295 4.00113 32.6441 4.87616 33.0148C5.9427 33.4642 6.66843 33.8986 7.05346 34.318C7.4181 34.7142 7.6192 35.2233 7.61914 35.7504C7.62062 36.1169 7.5341 36.4788 7.36604 36.8084C7.19804 37.138 6.95301 37.4265 6.64978 37.6518C5.97104 38.1837 5.11204 38.4614 4.23388 38.4326C3.60024 38.4348 2.97242 38.3174 2.38659 38.0872C1.8326 37.8806 1.33498 37.557 0.931152 37.1407L1.83564 36.2981C2.13541 36.606 2.49626 36.8541 2.89729 37.0281C3.29833 37.2021 3.7316 37.2986 4.17201 37.312C4.70268 37.3252 5.22223 37.1657 5.64512 36.8598C5.82752 36.7416 5.97772 36.5835 6.08327 36.399C6.18881 36.2143 6.24668 36.0084 6.25205 35.7982C6.2514 35.6309 6.21561 35.4654 6.1468 35.3116C6.07798 35.1577 5.97752 35.0185 5.85136 34.9022C5.58424 34.6438 4.98026 34.3208 4.03943 33.9332C3.03182 33.5091 2.3424 33.0907 1.97706 32.6778C1.62075 32.2891 1.42584 31.7896 1.42906 31.2735C1.427 30.9413 1.50574 30.6133 1.65909 30.315C1.81246 30.0168 2.03626 29.7565 2.31293 29.5546C2.93816 29.0847 3.71814 28.8419 4.51377 28.8693C5.53513 28.8674 6.5683 29.2709 7.6132 30.0798Z" fill="white"/>
<path d="M9.94922 29.0908H11.3782V33.3459C11.3426 34.066 11.413 34.7874 11.5873 35.4888C11.7966 36.0527 12.2161 36.5235 12.7659 36.8117C13.3957 37.1457 14.1077 37.3134 14.8282 37.2976C15.541 37.3187 16.2464 37.1557 16.8699 36.8258C17.397 36.5487 17.8095 36.1089 18.0396 35.5787C18.181 35.2248 18.2547 34.4806 18.2547 33.3318V29.0908H19.7278V33.5593C19.7278 34.8176 19.5481 35.7613 19.1886 36.396C18.8214 37.0412 18.2546 37.563 17.5653 37.8902C16.7188 38.2769 15.7869 38.4628 14.8488 38.4323C13.9081 38.4617 12.9735 38.2758 12.1235 37.8902C11.4272 37.5633 10.8554 37.0369 10.4884 36.3848C10.129 35.7416 9.94922 34.7698 9.94922 33.4779V29.0908Z" fill="white"/>
<path d="M24.1619 25.6899H25.5908V29.0912H27.8623V30.1023H25.5908V38.2079H24.1619V30.1023H22.2056V29.0912H24.1619V25.6899Z" fill="white"/>
<path d="M30.0459 25.5688H31.4748V32.7757L36.6896 29.0908H38.7727L32.6238 33.4329L39.1291 38.2076H37.0933L31.4748 34.0845V38.2076H30.0459V25.5688Z" fill="white"/>
<path d="M41.1028 25.3473C41.4079 25.3376 41.7055 25.4379 41.9366 25.6282C42.045 25.7096 42.1327 25.8135 42.193 25.932C42.2533 26.0504 42.2846 26.1804 42.2846 26.312C42.2846 26.4437 42.2533 26.5737 42.193 26.6921C42.1327 26.8106 42.045 26.9145 41.9366 26.9959C41.7031 27.181 41.4092 27.2823 41.1057 27.2823C40.8022 27.2823 40.5082 27.181 40.2749 26.9959C40.1664 26.9145 40.0787 26.8106 40.0184 26.6921C39.9581 26.5737 39.9268 26.4437 39.9268 26.312C39.9268 26.1804 39.9581 26.0504 40.0184 25.932C40.0787 25.8135 40.1664 25.7096 40.2749 25.6282C40.5039 25.4385 40.7995 25.3382 41.1028 25.3473ZM40.3898 29.0912H41.8364V38.2079H40.4045L40.3898 29.0912Z" fill="white"/>
<path d="M46.3884 36.3543C46.7118 36.3476 47.0264 36.4546 47.2723 36.6548C47.3873 36.7433 47.4801 36.8551 47.5438 36.9822C47.6075 37.1093 47.6406 37.2484 47.6406 37.3893C47.6406 37.5301 47.6075 37.6692 47.5438 37.7963C47.4801 37.9234 47.3873 38.0353 47.2723 38.1237C47.028 38.3274 46.713 38.4375 46.3884 38.4327C46.0641 38.4359 45.7498 38.3261 45.5046 38.1237C45.3895 38.0353 45.2967 37.9234 45.233 37.7963C45.1693 37.6692 45.1362 37.5301 45.1362 37.3893C45.1362 37.2484 45.1693 37.1093 45.233 36.9822C45.2967 36.8551 45.3895 36.7433 45.5046 36.6548C45.7515 36.4562 46.0654 36.3494 46.3884 36.3543Z" fill="white"/>
<path d="M50.0859 29.0909H51.559V30.4222C51.9363 29.9486 52.4079 29.5506 52.9467 29.251C53.4117 29.0008 53.9361 28.8684 54.4699 28.8662C54.9131 28.8774 55.3479 28.9829 55.7427 29.1752L54.9944 30.161C54.6414 30.0144 54.252 29.9667 53.8716 30.0234C53.4913 30.0801 53.1357 30.2389 52.8466 30.4812C52.3537 30.8687 51.9979 31.3913 51.8272 31.9782C51.6465 32.4949 51.5571 33.5444 51.559 35.1266V38.2161H50.0859V29.0909Z" fill="white"/>
<path d="M66.3846 35.1854L67.5988 35.705C67.2401 36.2932 66.7717 36.8139 66.2168 37.2414C65.6859 37.6319 65.0878 37.9312 64.449 38.1261C63.7323 38.3396 62.9843 38.443 62.2335 38.4322C60.4048 38.4322 58.9759 37.9454 57.9467 36.9717C57.4659 36.5524 57.0808 36.0433 56.8153 35.476C56.5497 34.9088 56.4093 34.2956 56.4028 33.6745C56.4006 32.521 56.8711 31.4124 57.7139 30.585C58.8158 29.4391 60.2958 28.8651 62.1539 28.8633C64.0631 28.8633 65.5923 29.4531 66.7297 30.6299C67.5465 31.4756 67.9897 32.5894 67.9665 33.7391H57.8819C57.8821 34.2318 57.9938 34.7187 58.2094 35.1665C58.425 35.6144 58.7394 36.0127 59.1311 36.3342C59.9569 37.0155 61.021 37.3764 62.1126 37.3453C62.678 37.3467 63.2403 37.2662 63.7803 37.1066C64.2743 36.9683 64.7407 36.7519 65.1588 36.4662C65.6349 36.1015 66.0484 35.6685 66.3846 35.1827V35.1854ZM66.3994 32.7308C66.2459 32.1748 65.9568 31.6611 65.5568 31.231C65.1426 30.8283 64.6394 30.5192 64.0837 30.3266C63.4761 30.097 62.8281 29.9808 62.1745 29.9839C61.1524 29.9574 60.1508 30.2603 59.3314 30.8433C58.7033 31.3314 58.2452 31.9894 58.0174 32.7308H66.3994Z" fill="white"/>
<path d="M70.6211 29.091H72.0501V30.7227C72.5785 30.1321 73.2308 29.6537 73.965 29.3185C74.6817 29.0085 75.4611 28.8514 76.2482 28.8578C77.0269 28.8425 77.7953 29.0217 78.4785 29.3774C79.0972 29.6943 79.5992 30.1844 79.9166 30.7817C80.2108 31.3659 80.3792 32.2787 80.3792 33.5173V38.2049H78.9592V33.8627C78.9895 33.1589 78.9353 32.454 78.7966 31.7619C78.6572 31.211 78.3114 30.7276 77.8243 30.4025C77.2701 30.0771 76.625 29.9185 75.9746 29.9475C75.1346 29.9382 74.314 30.1852 73.6321 30.6525C72.9817 31.0667 72.5011 31.6816 72.2708 32.3939C72.0959 33.2075 72.0256 34.0384 72.0617 34.8683V38.2077H70.6211V29.091Z" fill="white"/>
<path d="M84.6866 25.6899H86.1156V29.0912H88.3873V30.1023H86.1156V38.2079H84.6866V30.1023H82.7305V29.0912H84.6866V25.6899Z" fill="white"/>
<path fill-rule="evenodd" clip-rule="evenodd" d="M14.3921 3.7207L40.3249 11.5932L46.0258 19.213L27.1964 19.2523L14.3921 3.7207Z" fill="white"/>
<path fill-rule="evenodd" clip-rule="evenodd" d="M41.4536 11.2732L47.4934 19.2412L66.5556 0.145508L50.1981 7.39736L50.1686 10.3689L49.3083 10.4222L49.2553 6.59124L45.434 7.97593L45.49 9.41113L41.4536 11.2732Z" fill="white"/>
<path fill-rule="evenodd" clip-rule="evenodd" d="M65.5684 2.66203L67.1832 0.802734L84.7393 19.2497L81.16 19.3424L65.5684 2.66203Z" fill="white"/>
<path fill-rule="evenodd" clip-rule="evenodd" d="M13.7677 4.49902L15.1377 5.99039L3.014 19.3341L0 19.3678L13.7677 4.49902Z" fill="white"/>
<path fill-rule="evenodd" clip-rule="evenodd" d="M12.4653 11.1807H14.9991V13.8123H12.4653V11.1807ZM15.7887 11.1807H18.3225V13.8096H15.7887V11.1807ZM12.4771 14.6269H15.0257V17.2585H12.4918L12.4771 14.6269ZM15.7975 14.6269H18.3313V17.2585H15.7975V14.6269Z" fill="white"/>
<path fill-rule="evenodd" clip-rule="evenodd" d="M61.9536 10.3267H64.9679V13.4554H61.9536V10.3267ZM65.9073 10.3267H68.9247V13.4695H65.9073V10.3267ZM61.9654 14.4273H64.9821V17.5589H61.9654V14.4273ZM65.9196 14.4413H68.9421V17.5701H65.9196V14.4413Z" fill="white"/>
</g>
</svg>
