<svg width="26" height="24" viewBox="0 0 26 24" fill="var(--color-notif)" xmlns="http://www.w3.org/2000/svg">
<path d="M4.33301 19V17H6.49967V10C6.49967 8.61667 6.95106 7.39167 7.85384 6.325C8.75662 5.24167 9.93023 4.53333 11.3747 4.2V3.5C11.3747 3.08333 11.5281 2.73333 11.8351 2.45C12.1601 2.15 12.5483 2 12.9997 2C13.4511 2 13.8302 2.15 14.1372 2.45C14.4622 2.73333 14.6247 3.08333 14.6247 3.5V4.2C16.0691 4.53333 17.2427 5.24167 18.1455 6.325C19.0483 7.39167 19.4997 8.61667 19.4997 10V17H21.6663V19H4.33301ZM12.9997 22C12.4038 22 11.8893 21.8083 11.4559 21.425C11.0406 21.025 10.833 20.55 10.833 20H15.1663C15.1663 20.55 14.9497 21.025 14.5163 21.425C14.1011 21.8083 13.5955 22 12.9997 22ZM8.66634 17H17.333V10C17.333 8.9 16.9087 7.95833 16.0601 7.175C15.2115 6.39167 14.1913 6 12.9997 6C11.808 6 10.7879 6.39167 9.93926 7.175C9.09065 7.95833 8.66634 8.9 8.66634 10V17Z" 
fill="var(--color-notif)"/>
</svg>
