<svg width="15" height="15" viewBox="0 0 15 15" fill="none" xmlns="http://www.w3.org/2000/svg">
<g clip-path="url(#clip0_4_10)">
<!-- <mask id="mask0_4_10" style="mask-type:luminance" maskUnits="userSpaceOnUse" x="0" y="0" width="15" height="15">
<path d="M15 0H0V15H15V0Z" fill="white"/>
</mask> -->
<g mask="url(#mask0_4_10)">
<path fill-rule="evenodd" clip-rule="evenodd" d="M3.75 4.28571C4.93347 4.28571 5.89286 3.32632 5.89286 2.14286C5.89286 0.959389 4.93347 0 3.75 0C2.56653 0 1.60714 0.959389 1.60714 2.14286C1.60714 3.32632 2.56653 4.28571 3.75 4.28571ZM5.94099 10.7143V10.6827C5.94099 9.62173 6.5268 8.6976 7.39261 8.21611C7.2309 7.55508 6.89083 6.94467 6.40165 6.4555C5.69839 5.75223 4.74456 5.35714 3.75 5.35714C2.75544 5.35714 1.80161 5.75223 1.09835 6.4555C0.395088 7.15875 0 8.11258 0 9.10714V10.1786C0 10.4744 0.239848 10.7143 0.535714 10.7143H1.60714L2.0842 14.5307C2.11771 14.7988 2.3456 15 2.61577 15H4.88422C5.1544 15 5.38229 14.7988 5.4158 14.5307L5.89286 10.7143H5.94099ZM10.6361 8.23635C10.4881 8.23635 10.3682 8.35626 10.3682 8.50421V9.20157H11.8817V8.50421C11.8817 8.35626 11.7617 8.23635 11.6139 8.23635H10.6361ZM8.76107 8.50421V9.20157C7.94322 9.20174 7.28027 9.86479 7.28027 10.6827V13.5189C7.28027 14.3368 7.94339 14.9999 8.76137 14.9999H13.4883C14.3062 14.9999 14.9694 14.3368 14.9694 13.5189V10.6827C14.9694 9.86487 14.3066 9.20187 13.4889 9.20157V8.50421C13.4889 7.46867 12.6494 6.62921 11.6139 6.62921H10.6361C9.60054 6.62921 8.76107 7.46867 8.76107 8.50421Z" 
fill="var(--color-partner)"/>
</g>
</g>
<defs>
<clipPath id="clip0_4_10">
<rect width="15" height="15" fill="white"/>
</clipPath>
</defs>
</svg>
