<svg width="15" height="15" viewBox="0 0 15 15" fill="none" xmlns="http://www.w3.org/2000/svg">
<path 
fill="--color-phone"
d="M13.4812 11.2062C13.4812 11.4312 13.4312 11.6625 13.325 11.8875C13.2187 12.1125 13.0813 12.325 12.9 12.525C12.5938 12.8625 12.2562 13.1063 11.875 13.2625C11.5 13.4188 11.0938 13.5 10.6563 13.5C10.0188 13.5 9.3375 13.35 8.61875 13.0438C7.9 12.7375 7.18125 12.325 6.46875 11.8063C5.75 11.2813 5.06875 10.7 4.41875 10.0562C3.775 9.40625 3.19375 8.725 2.675 8.0125C2.1625 7.3 1.75 6.5875 1.45 5.88125C1.15 5.16875 1 4.4875 1 3.8375C1 3.4125 1.075 3.00625 1.225 2.63125C1.375 2.25 1.6125 1.9 1.94375 1.5875C2.34375 1.19375 2.78125 1 3.24375 1C3.41875 1 3.59375 1.0375 3.75 1.1125C3.9125 1.1875 4.05625 1.3 4.16875 1.4625L5.61875 3.50625C5.73125 3.6625 5.8125 3.80625 5.86875 3.94375C5.925 4.075 5.95625 4.20625 5.95625 4.325C5.95625 4.475 5.9125 4.625 5.825 4.76875C5.74375 4.9125 5.625 5.0625 5.475 5.2125L5 5.70625C4.93125 5.775 4.9 5.85625 4.9 5.95625C4.9 6.00625 4.90625 6.05 4.91875 6.1C4.9375 6.15 4.95625 6.1875 4.96875 6.225C5.08125 6.43125 5.275 6.7 5.55 7.025C5.83125 7.35 6.13125 7.68125 6.45625 8.0125C6.79375 8.34375 7.11875 8.65 7.45 8.93125C7.775 9.20625 8.04375 9.39375 8.25625 9.50625C8.2875 9.51875 8.325 9.5375 8.36875 9.55625C8.41875 9.575 8.46875 9.58125 8.525 9.58125C8.63125 9.58125 8.7125 9.54375 8.78125 9.475L9.25625 9.00625C9.4125 8.85 9.5625 8.73125 9.70625 8.65625C9.85 8.56875 9.99375 8.525 10.15 8.525C10.2687 8.525 10.3938 8.55 10.5312 8.60625C10.6687 8.6625 10.8125 8.74375 10.9688 8.85L13.0375 10.3187C13.2 10.4312 13.3125 10.5625 13.3812 10.7187C13.4437 10.875 13.4812 11.0312 13.4812 11.2062Z" 
stroke="var(--color-phone)" stroke-width="1.5" stroke-miterlimit="10"/>
</svg>
