<svg width="15" height="15" viewBox="0 0 15 15" fill="none" xmlns="http://www.w3.org/2000/svg">
<path d="M6.75 11.25H8.25V8.25H11.25V6.75H8.25V3.75H6.75V6.75H3.75V8.25H6.75V11.25ZM7.5 15C6.4625 15 5.4875 14.8063 4.575 14.4188C3.6625 14.0188 2.86875 13.4812 2.19375 12.8062C1.51875 12.1312 0.98125 11.3375 0.58125 10.425C0.19375 9.5125 0 8.5375 0 7.5C0 6.4625 0.19375 5.4875 0.58125 4.575C0.98125 3.6625 1.51875 2.86875 2.19375 2.19375C2.86875 1.51875 3.6625 0.987499 4.575 0.599999C5.4875 0.2 6.4625 0 7.5 0C8.5375 0 9.5125 0.2 10.425 0.599999C11.3375 0.987499 12.1313 1.51875 12.8063 2.19375C13.4813 2.86875 14.0125 3.6625 14.4 4.575C14.8 5.4875 15 6.4625 15 7.5C15 8.5375 14.8 9.5125 14.4 10.425C14.0125 11.3375 13.4813 12.1312 12.8063 12.8062C12.1313 13.4812 11.3375 14.0188 10.425 14.4188C9.5125 14.8063 8.5375 15 7.5 15ZM7.5 13.5C9.175 13.5 10.5938 12.9187 11.7563 11.7562C12.9188 10.5937 13.5 9.175 13.5 7.5C13.5 5.825 12.9188 4.40625 11.7563 3.24375C10.5938 2.08125 9.175 1.5 7.5 1.5C5.825 1.5 4.40625 2.08125 3.24375 3.24375C2.08125 4.40625 1.5 5.825 1.5 7.5C1.5 9.175 2.08125 10.5937 3.24375 11.7562C4.40625 12.9187 5.825 13.5 7.5 13.5Z" 
fill="var(--color-plus)"/>
</svg>
