<svg width="10" height="10" viewBox="0 0 10 10" fill="none" xmlns="http://www.w3.org/2000/svg">
<path d="M9.97392 3.64063C9.94194 3.54153 9.88151 3.45404 9.80015 3.38906C9.71879 3.32407 9.6201 3.28447 9.51639 3.27519L6.6301 3.01309L5.48881 0.341737C5.40462 0.14597 5.21298 0.0192871 5.00004 0.0192871C4.78711 0.0192871 4.59544 0.14599 4.5113 0.342225L3.36998 3.01311L0.48325 3.27519C0.379657 3.28468 0.281126 3.32436 0.199875 3.38932C0.118624 3.45429 0.0582256 3.54166 0.026168 3.64063C-0.0396735 3.84313 0.0211288 4.06523 0.181582 4.20523L2.36328 6.11856L1.71994 8.95242C1.67287 9.16079 1.75373 9.37618 1.92663 9.50115C2.01954 9.5683 2.12827 9.60248 2.2379 9.60248C2.33244 9.60248 2.42619 9.57699 2.51037 9.52664L5.00004 8.03863L7.48882 9.52664C7.67093 9.63621 7.90051 9.62619 8.07301 9.50115C8.15746 9.44002 8.22208 9.35541 8.25883 9.25785C8.29558 9.16029 8.30283 9.05408 8.2797 8.95242L7.63638 6.11856L9.81806 4.20562C9.89654 4.13708 9.95315 4.04699 9.98086 3.94654C10.0086 3.84609 10.0062 3.73972 9.97392 3.64063Z" fill="#FFC107"/>
</svg>
