<svg width="25" height="26" viewBox="0 0 25 26" fill="none" xmlns="http://www.w3.org/2000/svg">
<path d="M25 12.692C25 5.80883 19.4361 0.228939 12.5728 0.228939C5.70938 0.228939 0.145508 5.80883 0.145508 12.692C0.145508 19.5751 5.70938 25.155 12.5728 25.155C19.4361 25.155 25 19.5751 25 12.692Z" fill="#FA0000"/>
<path d="M21.9259 4.49261C20.1141 7.82811 17.5518 11.2686 14.3502 14.4794C11.1485 17.6903 7.71794 20.2551 4.39692 22.072C4.18871 21.8906 3.9865 21.7014 3.79028 21.5046C2.60422 20.3549 1.65828 18.9798 1.00761 17.4596C0.356943 15.9394 0.01457 14.3045 0.000454996 12.6503C-0.01366 10.996 0.300766 9.35549 0.925398 7.82436C1.55003 6.29322 2.47237 4.90212 3.63863 3.73218C4.80489 2.56223 6.19174 1.63685 7.71831 1.00999C9.24487 0.383132 10.8806 0.0673435 12.5301 0.0810373C14.1796 0.0947311 15.8099 0.437634 17.3259 1.08975C18.842 1.74187 20.2133 2.69015 21.3601 3.8793C21.5563 4.07608 21.7449 4.28052 21.9259 4.49261Z" fill="white" fill-opacity="0.0627451"/>
<path d="M18.4902 9.6091C18.3471 9.06537 17.9236 8.63869 17.3852 8.49332C16.41 8.229 12.5019 8.229 12.5019 8.229C12.5019 8.229 8.59187 8.229 7.6186 8.49332C7.0802 8.63869 6.65663 9.06537 6.51355 9.6091C6.25 10.5927 6.25 12.6468 6.25 12.6468C6.25 12.6468 6.25 14.7009 6.51167 15.6845C6.65474 16.2282 7.07831 16.6549 7.61672 16.8003C8.59187 17.0646 12.5 17.0646 12.5 17.0646C12.5 17.0646 16.41 17.0646 17.3833 16.8003C17.9217 16.6549 18.3453 16.2282 18.4883 15.6845C18.75 14.7009 18.75 12.6468 18.75 12.6468C18.75 12.6468 18.75 10.5927 18.4902 9.6091ZM11.2218 14.5102V10.7834L14.488 12.6468L11.2218 14.5102Z" fill="white"/>
</svg>
